<?xml version="1.0" standalone="no"?>
<!DOCTYPE svg PUBLIC "-//W3C//DTD SVG 20010904//EN"
 "http://www.w3.org/TR/2001/REC-SVG-20010904/DTD/svg10.dtd">
<svg version="1.0" xmlns="http://www.w3.org/2000/svg"
 width="1264.000000pt" height="1264.000000pt" viewBox="0 0 1264.000000 1264.000000"
 preserveAspectRatio="xMidYMid meet">
<metadata>
Created by potrace 1.14, written by Peter Selinger 2001-2017
</metadata>
<g transform="translate(0.000000,1264.000000) scale(0.100000,-0.100000)"
fill="#000000" stroke="none">
<path d="M3848 10032 c-13 -3 -15 -49 -14 -395 l1 -391 -550 -1 -550 0 0 -375
c0 -206 1 -379 3 -383 2 -4 5 -40 7 -80 6 -98 16 -194 30 -279 l7 -38 -69 -1
c-37 0 -229 0 -426 0 l-358 -1 5 -421 c3 -232 7 -442 10 -467 3 -25 8 -63 11
-85 18 -129 23 -111 -56 -181 -58 -50 -129 -139 -183 -228 -10 -17 -23 -34
-28 -37 -5 -3 -10 -9 -9 -12 0 -4 -10 -28 -22 -54 -11 -27 -20 -51 -19 -55 1
-5 -2 -8 -6 -8 -5 0 -14 -19 -21 -42 -7 -23 -18 -53 -24 -67 -5 -14 -11 -30
-12 -36 -2 -5 -10 -36 -19 -67 -10 -31 -19 -70 -22 -85 -2 -15 -9 -48 -14 -73
-17 -77 -34 -216 -35 -282 0 -27 -2 -48 -5 -48 -10 0 -15 -838 -5 -848 3 -4
801 -7 1773 -8 972 -1 1770 -2 1775 -3 4 0 3 -9 -1 -18 -5 -10 -21 -56 -37
-103 -33 -101 -91 -222 -148 -305 -74 -110 -240 -260 -357 -324 -64 -34 -157
-79 -180 -86 -14 -4 -29 -11 -35 -15 -19 -13 -259 -87 -305 -94 -9 -1 -21 -5
-28 -10 -6 -4 -12 -5 -12 -2 0 2 -15 0 -32 -5 -18 -6 -51 -12 -73 -14 -22 -2
-40 -5 -40 -6 0 -3 -78 -13 -175 -24 -25 -3 -65 -11 -90 -18 -42 -12 -44 -14
-23 -25 33 -18 56 -20 202 -21 l134 -1 -49 -32 c-78 -51 -130 -114 -160 -193
-36 -97 -19 -237 44 -361 31 -61 105 -162 129 -177 7 -4 13 -11 13 -15 0 -4
-516 -7 -1147 -7 -632 1 -1152 0 -1158 -2 -8 -3 -11 -94 -6 -243 l1 -25 4722
1 c2598 1 4728 2 4733 3 8 1 14 232 6 261 0 3 -543 5 -1206 5 -663 0 -1205 3
-1205 7 0 4 4 8 10 8 9 0 103 92 148 147 55 66 128 282 101 299 -5 3 -7 10 -4
15 10 15 -23 126 -49 168 -29 45 -67 86 -111 118 l-30 22 50 -6 c46 -5 189 -8
278 -4 20 0 37 5 37 11 0 11 -104 43 -215 66 -105 21 -150 31 -150 34 0 1 -7
3 -15 5 -8 2 -25 6 -37 9 -13 3 -32 8 -43 10 -39 9 -205 67 -294 103 -227 92
-414 217 -532 357 -27 32 -55 64 -61 71 -7 8 -13 17 -13 21 0 4 -6 15 -14 23
-41 46 -132 270 -142 346 l-4 30 1751 0 c963 0 1755 3 1761 6 9 6 12 674 3
799 -9 123 -28 286 -41 350 -41 208 -78 321 -156 475 -64 127 -119 202 -226
313 -40 42 -43 47 -38 86 4 22 9 64 11 91 3 28 8 68 11 90 3 22 7 231 10 465
l6 426 -434 -1 c-238 0 -438 1 -444 3 -8 2 -9 15 -2 45 5 23 11 71 13 107 3
36 5 65 6 65 16 0 34 912 19 934 -3 4 -251 7 -551 7 l-545 -1 1 393 c1 276 -1
392 -9 393 -6 0 -326 1 -711 1 -625 1 -856 -4 -920 -17 -11 -3 -36 -7 -55 -10
-76 -11 -145 -29 -240 -62 -78 -27 -220 -98 -231 -115 -3 -5 -10 -9 -14 -8 -4
1 -17 -7 -30 -18 -12 -11 -30 -24 -39 -29 -9 -5 -43 -35 -76 -67 l-60 -59 -63
59 c-34 32 -64 61 -67 64 -16 17 -135 90 -190 117 -78 38 -200 85 -200 77 0
-4 -6 -2 -12 3 -7 6 -29 13 -48 17 -19 3 -46 9 -60 12 -72 16 -190 31 -270 34
-94 3 -1444 6 -1462 2z m1517 -276 c91 -10 116 -14 165 -25 77 -16 157 -40
186 -56 16 -8 32 -15 36 -15 4 0 41 -21 83 -46 78 -47 171 -126 205 -174 l20
-28 -34 -73 c-36 -81 -77 -193 -79 -221 -1 -10 -5 -18 -10 -18 -4 0 -6 -3 -3
-8 2 -4 -2 -31 -9 -60 -8 -30 -17 -70 -20 -91 -3 -20 -7 -46 -9 -57 -2 -11 -7
-47 -11 -79 -4 -33 -9 -68 -11 -77 -8 -47 -16 -256 -17 -465 l-1 -233 -203 0
c-155 0 -203 3 -204 13 -1 6 -2 17 -3 22 -11 66 -22 116 -43 200 -13 55 -26
107 -28 117 -2 9 -11 30 -19 47 -9 17 -17 34 -17 38 -6 41 -131 282 -158 303
-3 3 -18 21 -32 40 -54 71 -165 174 -234 218 -22 14 -42 28 -45 31 -8 11 -179
91 -193 91 -7 0 -17 4 -22 9 -14 13 -224 63 -235 56 -6 -3 -10 -2 -10 3 0 5
-6 9 -12 9 -7 1 -42 4 -78 7 -36 4 -95 8 -132 9 -37 2 -70 6 -74 10 -4 3 -8
120 -9 259 l-2 253 601 -1 c331 0 628 -4 661 -8z m2970 -221 c0 -317 6 -290
-68 -292 -73 -1 -242 -17 -242 -22 0 -2 -16 -4 -35 -7 -63 -8 -126 -25 -215
-56 -73 -26 -219 -97 -223 -109 -2 -5 -8 -9 -14 -9 -11 0 -107 -73 -161 -123
-21 -20 -60 -64 -87 -99 -28 -35 -53 -67 -58 -73 -41 -52 -129 -234 -166 -345
-19 -57 -53 -193 -61 -245 -3 -22 -9 -58 -13 -80 l-7 -40 -148 -2 c-82 -1
-155 -4 -163 -7 -8 -3 -14 -1 -14 5 0 6 -7 6 -20 -1 -12 -6 -20 -7 -20 -1 0 5
-8 7 -18 4 -17 -4 -18 9 -19 199 0 235 -12 466 -28 568 -4 25 -8 59 -10 75 -1
17 -4 30 -5 30 -1 0 -3 9 -4 20 -2 17 -16 87 -21 105 -1 3 -5 21 -9 40 -4 19
-17 64 -29 100 -12 36 -22 67 -22 70 -2 7 -18 45 -49 114 -14 32 -26 60 -26
63 0 2 30 34 68 71 67 68 127 114 192 147 19 9 48 24 63 32 15 8 36 16 45 18
9 2 18 4 20 5 1 2 5 3 10 4 4 1 23 7 42 14 56 19 170 40 251 48 41 3 75 7 76
8 1 0 268 1 595 1 l593 0 0 -230z m-2101 -485 c2 -14 5 -26 5 -27 1 -2 2 -6 2
-10 1 -5 6 -19 11 -33 5 -14 11 -38 13 -55 2 -16 7 -45 10 -62 15 -92 16 -95
30 -263 4 -41 8 -184 9 -317 3 -278 14 -251 -106 -251 -62 0 -77 3 -80 17 -10
42 3 565 17 669 11 86 16 119 20 142 3 14 7 36 10 50 6 30 13 66 21 100 3 14
8 38 11 53 6 32 20 25 27 -13z m-2366 -76 c-3 -3 -2 -22 3 -42 4 -20 11 -53
14 -72 3 -19 10 -51 15 -70 5 -19 11 -46 14 -60 19 -102 149 -406 187 -440 3
-3 20 -27 39 -55 47 -71 184 -203 267 -258 194 -129 417 -196 706 -210 48 -3
91 -8 95 -11 8 -9 12 -496 4 -497 -4 0 -150 -1 -324 -2 l-318 -2 -21 55 c-52
131 -136 279 -203 358 -62 74 -203 202 -222 202 -4 0 -15 6 -23 14 -52 44
-307 151 -386 162 -11 1 -38 6 -60 12 -22 5 -48 8 -58 6 -9 -1 -17 1 -17 4 0
10 -66 13 -307 15 l-212 2 -6 25 c-3 14 -8 36 -11 50 -3 14 -7 43 -10 65 -2
22 -6 55 -9 73 -19 124 -25 669 -8 680 13 8 859 4 851 -4z m457 -9 c77 -10
112 -17 135 -25 14 -6 35 -11 47 -13 12 -2 26 -6 29 -10 4 -4 14 -7 22 -7 8 0
49 -16 91 -36 185 -89 324 -229 407 -410 15 -33 31 -67 36 -77 18 -37 62 -188
74 -254 10 -57 12 -69 16 -83 2 -12 -8 -15 -57 -14 -278 6 -528 103 -690 270
-66 67 -67 69 -111 134 -57 84 -139 286 -159 390 -10 56 -13 73 -20 113 l-6
38 78 -6 c43 -3 92 -8 108 -10z m3967 -39 c-8 -119 -100 -374 -179 -493 -43
-67 -191 -218 -222 -228 -12 -3 -21 -11 -21 -17 0 -6 -3 -9 -6 -5 -4 3 -22 -5
-40 -20 -19 -14 -34 -23 -34 -20 0 3 -25 -5 -54 -19 -105 -48 -234 -76 -400
-88 l-79 -6 6 42 c4 24 9 54 12 68 3 14 8 36 11 50 6 33 45 162 53 175 3 6 6
15 7 20 2 12 66 148 74 155 3 3 13 20 24 39 10 19 26 41 35 50 9 9 32 35 51
57 44 50 123 113 195 154 56 32 175 82 175 74 0 -3 8 0 18 5 11 6 30 12 43 15
13 2 46 9 74 16 27 6 81 14 120 17 38 3 71 6 73 8 1 1 17 1 35 1 32 -2 32 -2
29 -50z m1141 -190 c-1 -133 -4 -272 -7 -311 -8 -112 -21 -230 -26 -230 -1 0
-3 -20 -6 -44 -2 -24 -8 -49 -13 -55 -6 -7 -72 -11 -190 -11 -100 0 -181 -2
-181 -5 0 -3 -17 -5 -38 -6 -53 -2 -163 -18 -204 -30 -9 -3 -26 -7 -37 -9 -46
-10 -58 -14 -106 -30 -89 -30 -236 -107 -314 -165 -85 -63 -187 -171 -243
-258 -20 -31 -41 -62 -45 -67 -14 -19 -71 -138 -95 -199 l-23 -60 -337 0
c-217 -1 -339 3 -341 9 -7 17 0 485 6 492 4 3 39 7 79 8 96 4 193 14 248 26
25 6 52 12 60 14 263 54 482 189 658 403 29 35 52 67 52 72 0 5 6 15 14 23 31
30 144 282 162 360 2 9 6 25 9 35 12 45 46 197 51 230 3 20 8 40 10 43 2 3
196 6 431 6 l428 0 -2 -241z m-6593 -916 c4 0 12 -17 19 -37 26 -74 96 -219
135 -278 41 -63 146 -187 184 -218 12 -10 22 -21 22 -25 0 -4 -105 -7 -233 -8
-205 0 -401 -9 -417 -19 -3 -2 -23 -6 -44 -9 -59 -10 -188 -44 -229 -61 -49
-20 -62 -19 -63 8 -2 37 -15 351 -15 362 0 6 2 34 3 63 2 29 1 58 -3 64 -4 6
-3 22 2 35 6 16 5 31 -1 44 -8 13 -7 19 0 19 7 0 8 6 1 18 -13 25 -2 40 34 44
22 2 562 1 605 -2z m670 -12 c120 -20 199 -37 225 -48 11 -4 40 -16 65 -25
113 -42 244 -131 320 -219 39 -45 110 -150 110 -163 0 -6 3 -13 8 -15 11 -5
42 -77 34 -80 -13 -6 -336 -1 -392 6 -30 4 -58 7 -62 7 -4 0 -25 6 -47 14 -22
7 -41 12 -43 9 -7 -6 -166 59 -225 92 -102 58 -229 176 -281 263 -31 52 -70
128 -76 149 l-8 24 164 -3 c89 -2 183 -6 208 -11z m5790 8 c0 -2 -14 -33 -31
-67 -69 -139 -151 -237 -269 -321 -54 -38 -165 -98 -185 -99 -2 0 -17 -6 -32
-14 -14 -8 -30 -12 -35 -9 -4 3 -8 0 -8 -6 0 -6 -4 -8 -10 -5 -5 3 -16 3 -22
-2 -15 -9 -10 -8 -118 -25 -47 -7 -152 -13 -234 -13 -133 1 -149 3 -152 18 -1
9 1 17 6 17 7 0 13 15 18 43 1 4 25 41 53 83 91 135 199 227 346 297 38 17 73
32 78 34 6 1 44 11 85 23 82 22 114 28 216 38 79 9 294 14 294 8z m966 -289
c-3 -161 -7 -304 -9 -319 -2 -16 -4 -39 -5 -53 l-2 -25 -52 21 c-60 23 -51 20
-173 53 -156 42 -237 49 -547 50 -137 1 -248 3 -248 6 1 3 30 34 66 70 35 35
77 83 92 105 15 22 30 42 35 43 4 2 7 8 7 13 0 5 15 32 33 61 38 60 83 155 93
193 3 14 10 28 15 31 5 3 9 14 9 25 0 19 9 19 346 19 l346 -1 -6 -292z m-4448
224 c2 -6 -1 -18 -8 -26 -19 -23 -51 -117 -58 -170 -8 -64 -7 -209 1 -257 4
-21 4 -38 -1 -39 -54 -6 -262 -2 -264 6 0 6 -2 96 -3 200 -1 105 -5 196 -9
203 -4 7 -2 12 4 12 7 0 8 7 3 18 -5 9 -8 24 -7 32 1 8 2 20 3 25 2 15 334 12
339 -4z m1133 10 c11 -2 2 -493 -9 -500 -9 -5 -115 -6 -179 -2 -9 1 -10 8 -3
25 9 26 7 233 -4 280 -4 16 -11 37 -17 47 -5 10 -8 22 -7 26 1 6 -27 70 -50
115 -5 10 41 13 158 11 58 -1 108 -2 111 -2z m-597 -34 c70 -33 120 -79 164
-150 20 -33 37 -63 38 -66 0 -3 3 -13 7 -21 31 -80 42 -224 25 -322 -11 -64
-65 -227 -82 -248 -14 -17 -76 -144 -76 -155 0 -12 72 45 113 89 21 23 51 62
68 87 l29 46 1568 -2 c862 -2 1578 -5 1592 -8 14 -3 41 -7 60 -11 91 -14 203
-51 290 -93 52 -25 97 -48 100 -52 3 -3 22 -19 44 -35 146 -109 299 -357 331
-535 3 -17 9 -41 14 -54 5 -13 12 -41 15 -63 4 -21 11 -64 16 -94 12 -74 18
-127 26 -244 8 -126 12 -523 5 -534 -3 -5 -745 -9 -1648 -9 l-1643 0 -1 26 c0
14 -2 35 -4 46 -2 11 -7 61 -10 110 -3 50 -8 106 -10 125 -2 19 -7 64 -10 100
-7 78 -14 122 -42 250 -3 14 -6 30 -7 37 -1 7 -5 16 -9 19 -4 4 -7 17 -7 28 0
12 -7 30 -15 40 -8 10 -12 23 -9 27 3 5 1 9 -4 9 -6 0 -13 11 -16 25 -19 77
-138 198 -250 255 -68 34 -93 42 -149 44 -73 3 -98 -8 -45 -19 73 -16 143 -59
215 -133 40 -41 70 -78 67 -83 -3 -5 -1 -9 4 -9 10 0 49 -80 44 -92 -1 -5 2
-8 6 -8 4 0 9 -12 10 -26 1 -14 5 -31 8 -36 17 -27 19 -144 12 -688 -2 -218 1
-305 16 -376 2 -12 7 -37 10 -56 3 -20 17 -71 30 -114 74 -232 208 -407 423
-553 66 -45 270 -151 290 -151 6 0 14 -4 18 -9 3 -6 -43 -10 -117 -11 -68 -1
-145 -2 -173 -4 -88 -6 -219 -18 -240 -22 -11 -3 -35 -7 -52 -9 -18 -3 -48 -7
-65 -10 -18 -2 -44 -7 -58 -10 -14 -3 -37 -8 -51 -10 -80 -12 -290 -78 -382
-119 -31 -15 -61 -26 -66 -26 -6 0 -11 -4 -11 -9 0 -10 98 -5 148 8 20 6 48
12 62 15 14 3 36 8 50 11 14 3 39 7 55 10 17 3 41 8 55 10 14 3 50 7 80 10 30
2 82 7 115 11 111 13 407 7 565 -11 147 -16 185 -22 275 -40 14 -3 35 -7 48
-9 200 -39 319 -107 345 -196 11 -41 2 -101 -23 -150 -50 -97 -214 -190 -375
-214 -19 -3 -53 -9 -75 -12 -51 -9 -284 -9 -400 -1 -194 14 -356 30 -425 42
-14 2 -50 7 -80 10 -30 4 -68 9 -85 11 -16 3 -42 7 -56 9 -14 2 -59 8 -100 14
-41 6 -92 13 -114 15 -113 15 -142 19 -160 22 -11 3 -42 7 -70 9 -27 3 -59 7
-70 9 -41 8 -133 19 -245 31 -68 7 -105 13 -105 15 0 1 -29 3 -65 6 -35 2 -76
7 -90 9 -50 9 -248 19 -385 19 -155 0 -253 -7 -303 -23 -28 -8 -102 -48 -102
-55 0 -1 80 -3 178 -3 215 0 282 -4 282 -14 0 -5 6 -6 14 -3 12 5 57 -1 156
-21 14 -3 52 -10 85 -15 33 -6 92 -18 132 -25 39 -8 89 -18 110 -21 21 -3 41
-8 44 -10 4 -2 24 -6 45 -10 22 -3 57 -10 79 -16 59 -15 76 -19 115 -25 35 -5
62 -19 38 -20 -7 0 -40 -4 -73 -7 -33 -4 -121 -9 -195 -11 -74 -2 -184 -7
-245 -10 -60 -2 -175 -8 -255 -11 -80 -3 -167 -7 -195 -9 -449 -28 -917 -27
-1110 1 -40 6 -171 32 -190 38 -5 1 -30 8 -55 15 -25 7 -49 17 -55 21 -5 5
-12 9 -15 9 -35 8 -50 15 -50 22 0 5 -3 8 -7 7 -26 -9 -173 118 -173 148 0 8
-4 14 -10 14 -5 0 -10 4 -10 9 0 5 -5 22 -12 38 -6 15 -12 35 -12 43 -1 8 -4
20 -7 25 -3 6 -5 26 -4 47 1 36 43 99 75 112 8 3 29 14 45 24 68 42 236 87
360 97 22 2 40 4 40 5 0 7 198 13 425 14 274 0 450 -6 469 -18 5 -4 12 -2 16
3 3 6 13 7 23 4 15 -6 16 -5 2 12 -17 20 -63 42 -106 49 -16 3 -51 10 -79 16
-27 6 -66 13 -85 16 -19 2 -57 9 -85 14 -27 6 -70 13 -95 15 -25 3 -64 8 -88
10 -23 3 -55 7 -70 10 -15 2 -72 7 -126 10 -55 3 -101 7 -103 9 -2 2 18 11 44
21 74 27 218 97 221 106 2 5 9 9 15 9 14 0 171 117 175 130 2 6 11 10 19 10 9
0 14 2 11 5 -3 3 13 25 36 48 42 43 136 162 136 173 0 3 8 18 18 32 39 56 112
252 138 367 27 123 48 309 48 432 1 39 3 70 6 68 3 -2 6 54 7 123 3 225 16
411 36 497 37 160 85 246 178 317 17 13 40 32 50 43 19 18 19 20 2 26 -39 14
-145 -44 -209 -113 -50 -54 -138 -201 -136 -228 0 -3 -6 -20 -14 -39 -8 -19
-17 -48 -20 -64 -2 -17 -8 -35 -11 -41 -4 -6 -8 -17 -9 -26 0 -8 -7 -42 -13
-75 -7 -33 -14 -69 -16 -80 -1 -11 -8 -49 -14 -85 -6 -36 -13 -82 -17 -104 -3
-21 -8 -48 -10 -60 -2 -11 -7 -40 -10 -62 -2 -23 -7 -53 -10 -65 -2 -13 -7
-42 -10 -64 -4 -22 -8 -42 -11 -45 -3 -3 -756 -5 -1674 -6 l-1669 -1 -1 21
c-6 124 4 536 16 656 7 65 25 179 40 250 3 14 7 34 9 45 6 26 44 144 56 170 4
11 19 45 33 76 66 151 208 308 337 374 19 10 38 23 42 29 4 6 8 8 8 3 0 -4 17
1 37 11 58 29 176 65 259 78 21 3 50 8 64 11 14 3 746 7 1626 8 l1601 2 42
-62 c22 -35 41 -68 41 -74 0 -6 4 -11 8 -11 5 0 14 -10 21 -22 19 -38 4 65
-23 152 -25 80 -39 129 -41 145 -1 6 -6 19 -11 30 -10 25 -12 217 -1 270 26
134 115 261 217 308 25 12 48 21 52 22 3 0 9 3 12 6 13 13 122 -2 170 -24z"/>
<path d="M6838 5819 c-15 -17 -28 -33 -29 -37 -2 -8 -13 -36 -30 -77 -6 -16
-14 -39 -16 -49 -2 -11 -7 -24 -12 -30 -9 -11 -53 -139 -57 -166 -2 -13 -32
-149 -52 -240 -9 -40 -8 -308 1 -360 10 -55 29 -133 37 -155 37 -96 76 -187
99 -229 76 -139 97 -176 137 -239 24 -37 44 -70 44 -74 0 -3 17 -21 38 -40 47
-42 51 -29 22 69 -12 40 -25 87 -30 103 -4 17 -29 102 -54 190 -26 88 -49 177
-51 197 -2 21 -7 43 -10 48 -4 6 -8 21 -9 33 -2 12 -6 40 -10 62 -7 40 -12 81
-22 165 -6 52 -6 418 0 500 5 66 14 136 21 170 3 14 8 50 11 80 3 30 7 67 8
83 4 34 -2 34 -36 -4z"/>
<path d="M5594 5719 c1 -30 5 -60 10 -68 5 -7 10 -32 12 -55 1 -22 3 -41 4
-41 3 0 10 -43 13 -86 2 -25 6 -50 9 -55 5 -8 4 -459 -1 -459 -1 0 -5 -22 -7
-50 -5 -56 -11 -100 -14 -100 0 0 -3 -19 -6 -43 -6 -59 -47 -231 -80 -332 -15
-47 -28 -87 -29 -90 -1 -3 -9 -22 -19 -42 -9 -21 -17 -41 -18 -45 -1 -5 -27
-48 -58 -98 -31 -49 -62 -100 -69 -113 -16 -30 -23 -64 -12 -60 29 11 209 180
251 236 14 19 30 39 35 45 27 30 142 241 151 277 2 8 12 41 23 72 20 57 22 67
39 165 10 58 8 254 -3 323 -4 25 -9 56 -10 70 -2 14 -6 36 -10 50 -3 14 -8 36
-11 50 -4 22 -14 69 -20 93 -1 4 -3 9 -4 12 -1 3 -3 8 -4 13 -15 73 -118 311
-159 366 -13 18 -14 15 -13 -35z"/>
<path d="M3108 2452 c-14 -3 -16 -23 -17 -133 0 -71 3 -130 7 -130 4 -1 1412
-2 3130 -3 2077 -1 3122 2 3123 9 1 11 1 247 0 255 -1 5 -6216 7 -6243 2z"/>
</g>
</svg>
