<svg width="202" height="48" viewBox="0 0 202 48" fill="none" xmlns="http://www.w3.org/2000/svg">
    <mask id="mask0_704_16869" style="mask-type:luminance" maskUnits="userSpaceOnUse" x="-64" y="-93" width="331"
        height="234">
        <path d="M266.377 -92.941H-63.6523V140.667H266.377V-92.941Z" fill="white" />
    </mask>
    <g mask="url(#mask0_704_16869)">
        <path
            d="M30.4959 12.1825C31.319 10.7322 32.7301 9.75232 35.317 9.75232H40.922V11.9473C40.922 13.5543 40.7652 15.3181 39.9813 16.69C39.5501 17.4347 38.923 18.1011 38.0999 18.5322H29.5944V16.9252C29.5552 15.3181 29.712 13.5543 30.4959 12.1825ZM35.317 10.8498C33.2396 10.8498 32.0637 11.6337 31.4758 12.7312C30.8094 13.9071 30.6919 15.4749 30.6919 16.9252V18.0227H35.1994C37.2376 18.0227 38.4135 17.2387 39.0406 16.1413C39.7069 14.9654 39.8245 13.4367 39.8245 11.9473V10.8498H35.317Z"
            fill="url(#paint0_linear_704_16869)" />
    </g>
    <mask id="mask1_704_16869" style="mask-type:luminance" maskUnits="userSpaceOnUse" x="-64" y="-93" width="331"
        height="234">
        <path d="M266.377 -92.941H-63.6523V140.667H266.377V-92.941Z" fill="white" />
    </mask>
    <g mask="url(#mask1_704_16869)">
        <path
            d="M14.0336 16.1413C14.6607 17.2387 15.7974 18.0227 17.8748 18.0227H22.3823V16.9252C22.3823 15.4749 22.2256 13.9071 21.5984 12.7312C20.9713 11.6337 19.8346 10.8498 17.7572 10.8498H13.2497V11.9473C13.2889 13.4367 13.4065 15.0046 14.0336 16.1413ZM14.9743 18.5322C14.112 18.1011 13.5241 17.4739 13.0929 16.69C12.309 15.3181 12.1914 13.5935 12.1914 11.9473V9.75232H17.7964C20.305 9.75232 21.7552 10.7322 22.5783 12.1825C23.3622 13.5543 23.519 15.3181 23.519 16.9252V18.5322H14.9743Z"
            fill="url(#paint1_linear_704_16869)" />
    </g>
    <mask id="mask2_704_16869" style="mask-type:luminance" maskUnits="userSpaceOnUse" x="-64" y="-93" width="331"
        height="234">
        <path d="M266.377 -92.941H-63.6523V140.667H266.377V-92.941Z" fill="white" />
    </mask>
    <g mask="url(#mask2_704_16869)">
        <path
            d="M38.7665 15.6316C36.6891 15.6316 35.5132 16.4156 34.9253 17.5131C34.7685 17.8266 34.6117 18.1794 34.4941 18.5322H33.3574C33.475 17.9834 33.671 17.4739 33.9454 17.0035C34.7685 15.5533 36.1795 14.5734 38.7665 14.5734H44.3715V16.7683C44.3715 17.7874 44.2931 18.8457 44.0579 19.8256C43.7835 19.5512 43.47 19.3161 43.078 19.1201C43.1956 18.3754 43.2348 17.5523 43.2348 16.7683V15.6708H38.7665V15.6316Z"
            fill="url(#paint2_linear_704_16869)" />
    </g>
    <mask id="mask3_704_16869" style="mask-type:luminance" maskUnits="userSpaceOnUse" x="-64" y="-93" width="331"
        height="234">
        <path d="M266.377 -92.941H-63.6523V140.667H266.377V-92.941Z" fill="white" />
    </mask>
    <g mask="url(#mask3_704_16869)">
        <path
            d="M25.9494 8.92918C26.7725 7.47893 28.1835 6.49902 30.7705 6.49902H36.3755V8.694C36.3755 10.301 36.2187 12.0648 35.4348 13.4367C34.6117 14.887 33.1614 15.8668 30.6529 15.8668H25.0479V13.6719C25.0479 12.0648 25.1654 10.301 25.9494 8.92918ZM30.7705 7.6357C28.6931 7.6357 27.5172 8.41963 26.9293 9.51711C26.2629 10.693 26.1453 12.2608 26.1453 13.7111V14.8086H30.6529C32.6911 14.8086 33.8669 14.0246 34.4941 12.9272C35.1604 11.7513 35.278 10.2226 35.278 8.7332V7.6357H30.7705Z"
            fill="url(#paint3_linear_704_16869)" />
    </g>
    <mask id="mask4_704_16869" style="mask-type:luminance" maskUnits="userSpaceOnUse" x="-64" y="-93" width="331"
        height="234">
        <path d="M266.377 -92.941H-63.6523V140.667H266.377V-92.941Z" fill="white" />
    </mask>
    <g mask="url(#mask4_704_16869)">
        <path
            d="M26.1454 9.47792C25.5183 8.38043 24.3816 7.59651 22.3042 7.59651H17.7967V8.694C17.7967 10.1442 17.9535 11.7121 18.5806 12.888C19.2078 13.9854 20.3444 14.7694 22.4218 14.7694H26.9294V13.6719C26.9294 12.2216 26.8118 10.6538 26.1454 9.47792ZM22.3042 6.49902C24.8912 6.49902 26.3022 7.47893 27.1253 8.92918C27.9093 10.301 28.0268 12.0256 28.0268 13.6719V15.8668H22.4218C19.9133 15.8668 18.463 14.887 17.6399 13.4367C16.856 12.0648 16.6992 10.301 16.6992 8.694V6.49902H22.3042Z"
            fill="url(#paint4_linear_704_16869)" />
    </g>
    <mask id="mask5_704_16869" style="mask-type:luminance" maskUnits="userSpaceOnUse" x="-64" y="-93" width="331"
        height="234">
        <path d="M266.377 -92.941H-63.6523V140.667H266.377V-92.941Z" fill="white" />
    </mask>
    <g mask="url(#mask5_704_16869)">
        <path
            d="M14.4654 14.5342C17.0523 14.5342 18.4634 15.5141 19.2865 16.9643C19.5608 17.4347 19.7568 17.9834 19.8744 18.493H18.7377C18.6201 18.1402 18.5026 17.7875 18.3066 17.4739C17.6794 16.3764 16.5428 15.5925 14.4654 15.5925H9.95784V16.69C9.95784 17.4347 9.99703 18.2186 10.1146 18.9633C9.72266 19.1593 9.40909 19.3553 9.13472 19.6297C8.93874 18.689 8.86035 17.6699 8.86035 16.69V14.495H14.4654V14.5342Z"
            fill="url(#paint5_linear_704_16869)" />
    </g>
    <mask id="mask6_704_16869" style="mask-type:luminance" maskUnits="userSpaceOnUse" x="-64" y="-93" width="331"
        height="234">
        <path d="M266.377 -92.941H-63.6523V140.667H266.377V-92.941Z" fill="white" />
    </mask>
    <g mask="url(#mask6_704_16869)">
        <path
            d="M28.6541 17.9442H40.4129C42.9214 17.9442 44.3716 18.9241 45.1948 20.3744C45.9787 21.7462 46.1355 23.51 46.1355 25.1171V27.312H34.4159H31.5154C31.437 26.9593 31.3978 26.5673 31.3586 26.2145H34.4159H44.9988V25.1171C44.9988 23.6668 44.842 22.099 44.2149 20.9231C43.5877 19.8256 42.451 19.0417 40.3737 19.0417H28.1445C28.2229 18.9241 28.3013 18.8065 28.3405 18.6889C28.4973 18.493 28.6149 18.2186 28.6541 17.9442Z"
            fill="url(#paint6_linear_704_16869)" />
    </g>
    <mask id="mask7_704_16869" style="mask-type:luminance" maskUnits="userSpaceOnUse" x="-64" y="-93" width="331"
        height="234">
        <path d="M266.377 -92.941H-63.6523V140.667H266.377V-92.941Z" fill="white" />
    </mask>
    <g mask="url(#mask7_704_16869)">
        <path
            d="M12.8974 17.9442H24.6953C24.7345 18.0618 24.7345 18.1402 24.7737 18.2186C24.8913 18.5713 25.0089 18.8065 25.1657 19.0417H12.6622C10.5848 19.0417 9.40893 19.8256 8.82099 20.9231C8.15466 22.099 8.03707 23.6668 8.03707 25.1171V26.2145H21.9124C21.834 26.6065 21.7556 26.9593 21.6773 27.312H6.90039V25.1171C6.90039 23.51 7.05718 21.7462 7.8019 20.3744C8.62501 18.9241 10.0361 17.9442 12.623 17.9442H12.8974Z"
            fill="url(#paint7_linear_704_16869)" />
    </g>
    <mask id="mask8_704_16869" style="mask-type:luminance" maskUnits="userSpaceOnUse" x="-64" y="-93" width="331"
        height="234">
        <path d="M266.377 -92.941H-63.6523V140.667H266.377V-92.941Z" fill="white" />
    </mask>
    <g mask="url(#mask8_704_16869)">
        <path d="M39.4717 37.7773H13.6416V38.8748H39.4717V37.7773Z" fill="url(#paint8_linear_704_16869)" />
    </g>
    <mask id="mask9_704_16869" style="mask-type:luminance" maskUnits="userSpaceOnUse" x="-64" y="-93" width="331"
        height="234">
        <path d="M266.377 -92.941H-63.6523V140.667H266.377V-92.941Z" fill="white" />
    </mask>
    <g mask="url(#mask9_704_16869)">
        <path fill-rule="evenodd" clip-rule="evenodd"
            d="M16.3076 31.7804C15.994 31.7804 15.5237 31.7804 15.3669 31.7412L15.1709 31.6628L15.3669 31.5844C15.4845 31.5452 15.8372 31.506 16.1116 31.4668L16.4252 31.4276C16.582 31.3884 16.7387 31.3884 16.8955 31.3492C17.0523 31.31 17.2091 31.2708 17.3659 31.2316C17.6794 31.1532 17.993 31.0748 18.2674 30.9572C18.5417 30.8788 18.8161 30.7613 19.0513 30.6437C21.3247 29.507 21.6774 27.5472 22.0302 25.2738L22.1478 24.4899C22.3046 23.5884 22.4613 22.5693 23.0885 21.903C23.1669 21.8246 23.3236 21.6678 23.4804 21.5894C23.598 21.511 23.7156 21.4718 23.8724 21.4326L24.0292 21.3934C23.9116 21.5894 23.9116 21.5894 23.7548 21.707C22.9317 22.2949 22.8925 23.5492 22.8533 24.9995C22.8141 26.2145 22.7749 27.5472 22.2654 28.6839C21.8342 29.703 21.0895 30.4477 20.1096 30.9572C19.0905 31.4668 17.8362 31.7412 16.4252 31.7412L16.3076 31.7804Z"
            fill="url(#paint9_linear_704_16869)" />
    </g>
    <mask id="mask10_704_16869" style="mask-type:luminance" maskUnits="userSpaceOnUse" x="-64" y="-93" width="331"
        height="234">
        <path d="M266.377 -92.941H-63.6523V140.667H266.377V-92.941Z" fill="white" />
    </mask>
    <g mask="url(#mask10_704_16869)">
        <path fill-rule="evenodd" clip-rule="evenodd"
            d="M23.5974 30.8397L22.8135 31.5453L22.8527 31.3101C22.8527 31.2709 22.9703 31.0749 23.0878 30.8789C23.1662 30.7614 23.2446 30.683 23.2446 30.6046C23.323 30.487 23.3622 30.3694 23.4406 30.2518C23.4798 30.1342 23.5582 30.0166 23.5974 29.899C23.8718 29.1543 24.0677 28.292 24.1069 27.3905C24.1853 26.489 24.1461 25.5483 23.9894 24.7644L23.9502 24.6468C23.911 24.5292 23.911 24.4508 23.911 24.3332V24.0588L24.0677 24.294C24.3421 24.7644 24.6557 25.5483 24.8125 26.3322C24.9692 27.0377 25.0084 27.7433 24.8909 28.3312C24.8125 28.8016 24.6557 29.2327 24.4205 29.6247C24.2245 30.095 23.9502 30.487 23.5974 30.8397Z"
            fill="url(#paint10_linear_704_16869)" />
    </g>
    <mask id="mask11_704_16869" style="mask-type:luminance" maskUnits="userSpaceOnUse" x="-64" y="-93" width="331"
        height="234">
        <path d="M266.377 -92.941H-63.6523V140.667H266.377V-92.941Z" fill="white" />
    </mask>
    <g mask="url(#mask11_704_16869)">
        <path fill-rule="evenodd" clip-rule="evenodd"
            d="M37.2375 31.5453C37.4727 31.5844 37.6295 31.6237 37.7079 31.6628L37.9823 31.7804L37.7079 31.8196C37.1983 31.8588 36.4144 31.8196 35.6697 31.702C34.8858 31.5844 34.1411 31.3885 33.6315 31.1925C30.3391 29.8206 30.4566 27.3121 30.535 25.2347C30.5742 24.294 30.6134 23.4317 30.3391 22.8046C30.2215 22.5694 30.0647 22.3342 29.8687 22.1382C29.6727 21.9423 29.4375 21.7855 29.2416 21.7071L28.8496 21.5503H29.2808C29.3984 21.5503 29.5159 21.5895 29.6727 21.6287C29.8687 21.7071 30.0647 21.8247 30.1431 21.9031C31.2014 22.6478 31.319 24.0588 31.3973 25.5091C31.4365 26.1754 31.4757 26.8417 31.6325 27.4689C31.7893 28.2136 32.1029 28.8407 32.534 29.3503C32.9652 29.8598 33.5139 30.291 34.2194 30.6046C35.3953 31.1533 36.5712 31.4277 37.2375 31.5453Z"
            fill="url(#paint11_linear_704_16869)" />
    </g>
    <mask id="mask12_704_16869" style="mask-type:luminance" maskUnits="userSpaceOnUse" x="-64" y="-93" width="331"
        height="234">
        <path d="M266.377 -92.941H-63.6523V140.667H266.377V-92.941Z" fill="white" />
    </mask>
    <g mask="url(#mask12_704_16869)">
        <path fill-rule="evenodd" clip-rule="evenodd"
            d="M29.7123 30.1342C29.8299 30.487 29.9083 30.8005 29.9083 30.8789L29.9475 31.0357L29.7907 30.9573C29.6731 30.8789 29.6339 30.7613 29.5555 30.6438L29.5163 30.5654C28.9676 29.703 28.5756 28.9975 28.3796 28.2136C28.1836 27.4689 28.1836 26.6458 28.458 25.5483C28.5364 25.2739 28.6148 25.0387 28.6932 24.7644C28.7716 24.5292 28.8892 24.294 29.0068 24.0196C29.0068 23.9804 29.046 23.9412 29.046 23.9412C29.0852 23.8629 29.2027 23.7453 29.2811 23.6669V23.8628C29.2811 24.0588 29.2419 24.2548 29.2027 24.49C29.1635 24.6468 29.1243 24.8428 29.1243 24.9603C29.0852 25.6267 29.046 26.2146 29.0852 26.7634C29.1244 27.3121 29.2027 27.9 29.3203 28.6056C29.3595 29.0367 29.5555 29.6638 29.7123 30.1342Z"
            fill="url(#paint12_linear_704_16869)" />
    </g>
    <mask id="mask13_704_16869" style="mask-type:luminance" maskUnits="userSpaceOnUse" x="-64" y="-93" width="331"
        height="234">
        <path d="M266.377 -92.941H-63.6523V140.667H266.377V-92.941Z" fill="white" />
    </mask>
    <g mask="url(#mask13_704_16869)">
        <path fill-rule="evenodd" clip-rule="evenodd"
            d="M25.6756 34.7593C26.5771 34.7201 27.2827 34.7201 28.1842 34.5633C28.0274 34.6025 30.8103 34.9553 30.6535 34.9945C30.3007 35.0728 26.4595 35.0336 26.0676 35.112C25.6364 35.1904 25.2053 35.2296 24.7741 35.3472C23.6766 35.5432 22.1088 35.8176 20.6586 35.896C19.1691 35.9744 17.758 35.8568 16.8565 35.2296C16.347 34.8769 15.9158 34.3281 15.7591 33.7402C15.6807 33.505 15.6807 33.2698 15.6807 33.0347C15.7199 32.7995 15.7983 32.5643 15.9158 32.3683C16.151 32.0156 16.543 31.7412 17.1309 31.5844C17.5621 31.4668 18.0324 31.4276 18.5028 31.3884C18.9731 31.3884 19.4827 31.3884 19.9138 31.4276C20.2274 31.4668 20.6194 31.506 21.0113 31.5844C21.4425 31.6628 21.8344 31.7412 22.1872 31.8196C22.3048 31.8588 22.4224 31.8588 22.5008 31.898C22.54 31.9372 22.5791 31.9764 22.5791 31.9764L22.6575 32.0548H22.4616C22.2656 32.0548 22.0304 32.0548 21.7952 32.0156C21.5993 32.0156 21.4425 31.9764 21.2465 31.9764H21.1681C19.953 31.9764 17.7972 31.9372 16.8957 32.5643C16.739 32.6819 16.6606 32.7603 16.6214 32.8779C16.5822 32.9955 16.5822 33.1522 16.6214 33.3482C16.6998 33.6618 16.8565 33.897 17.0917 34.0929C17.2877 34.2889 17.5621 34.4457 17.8756 34.5241C19.2867 35.0728 21.5993 34.9553 23.4807 34.8377C23.951 34.7985 24.4214 34.7985 24.8133 34.7593C25.1661 34.7985 25.4404 34.7593 25.6756 34.7593Z"
            fill="url(#paint13_linear_704_16869)" />
    </g>
    <mask id="mask14_704_16869" style="mask-type:luminance" maskUnits="userSpaceOnUse" x="-64" y="-93" width="331"
        height="234">
        <path d="M266.377 -92.941H-63.6523V140.667H266.377V-92.941Z" fill="white" />
    </mask>
    <g mask="url(#mask14_704_16869)">
        <path fill-rule="evenodd" clip-rule="evenodd"
            d="M29.4771 32.1331C29.3204 32.1723 29.2028 32.2115 29.0852 32.2115L28.654 32.2507L29.046 32.094C29.8299 31.7412 30.9666 31.4668 32.1425 31.3884C33.2791 31.2708 34.4942 31.31 35.4349 31.5452C35.7093 31.6236 35.9445 31.6628 36.1796 31.7804C36.3756 31.8588 36.5716 31.9764 36.7284 32.1723C36.8852 32.3683 37.042 32.5643 37.0811 32.7603C37.1987 33.0739 37.1987 33.4266 37.0811 33.7794C36.9636 34.1321 36.7676 34.4457 36.454 34.7593C36.1404 35.0728 35.7485 35.308 35.2389 35.4648C33.4751 36.0527 30.5354 35.3472 28.1445 34.7985C27.3214 34.6025 26.5766 34.4065 25.9495 34.3281C25.7535 34.2889 25.5575 34.2497 25.4008 34.2105C25.0872 34.1321 24.7344 34.0929 24.4209 34.0537C23.8329 33.9754 23.441 33.9754 22.9314 34.0146H22.4219C22.5395 33.9362 22.6962 33.8186 22.853 33.7794C23.9113 33.4658 26.6158 33.8186 27.9877 34.0146L28.458 34.0929C28.7716 34.1321 29.0852 34.1713 29.4379 34.2105C30.9666 34.4457 32.8872 34.6809 34.1415 34.6025C34.5334 34.5633 35.043 34.4457 35.4741 34.2497C35.7877 34.0929 36.0229 33.8578 36.1796 33.5834C36.3756 33.1131 36.2188 32.7995 35.9053 32.6035C35.5917 32.4075 35.1214 32.2899 34.7294 32.2115C34.259 32.1332 33.7887 32.0548 33.3183 32.0156C32.848 31.9764 32.3776 31.9372 31.8681 31.9372C30.6138 31.8588 29.9083 32.0156 29.4771 32.1331Z"
            fill="url(#paint14_linear_704_16869)" />
    </g>
    <mask id="mask15_704_16869" style="mask-type:luminance" maskUnits="userSpaceOnUse" x="-64" y="-93" width="331"
        height="234">
        <path d="M266.377 -92.941H-63.6523V140.667H266.377V-92.941Z" fill="white" />
    </mask>
    <g mask="url(#mask15_704_16869)">
        <path fill-rule="evenodd" clip-rule="evenodd"
            d="M25.4796 19.2769C25.5188 19.3944 25.558 19.512 25.558 19.512L25.5972 19.904L25.4012 19.5904C25.1269 19.1593 24.8917 18.8457 24.7349 18.297C24.6565 18.0226 24.5781 17.709 24.5781 17.3954C24.5781 17.1211 24.5781 16.8075 24.6565 16.5331C24.8133 16.0236 25.1269 15.5141 25.5972 15.2005C25.9892 14.9261 26.4595 14.7693 27.0083 14.8869C27.5178 14.9653 27.949 15.2397 28.2625 15.6316C28.5761 16.0236 28.7721 16.5723 28.8505 17.1211C28.8897 17.4347 28.8505 17.709 28.7721 18.0226C28.6937 18.297 28.6153 18.5713 28.4977 18.8065C28.4193 19.0025 28.2625 19.2377 28.0666 19.4728C27.9098 19.6688 27.753 19.8256 27.6354 19.9432L27.4002 20.1L27.5178 19.8648C27.557 19.7864 27.5962 19.708 27.6354 19.5904C27.6746 19.512 27.7138 19.4336 27.753 19.3552C27.8706 19.0809 27.9882 18.8065 28.0666 18.4929C28.145 18.1794 28.145 17.905 28.1058 17.5522C28.0666 17.1603 27.9098 16.8075 27.6746 16.4939C27.4786 16.2196 27.2042 16.0236 26.8515 15.9452C26.4987 15.8668 26.1852 15.9452 25.95 16.1412C25.6364 16.3764 25.4012 16.7683 25.2836 17.0819C25.2445 17.2779 25.2053 17.513 25.2053 17.709C25.2053 17.9442 25.2053 18.1402 25.2445 18.3753C25.2837 18.6497 25.4012 19.0417 25.4796 19.2769Z"
            fill="url(#paint15_linear_704_16869)" />
    </g>
    <mask id="mask16_704_16869" style="mask-type:luminance" maskUnits="userSpaceOnUse" x="-64" y="-93" width="331"
        height="234">
        <path d="M266.377 -92.941H-63.6523V140.667H266.377V-92.941Z" fill="white" />
    </mask>
    <g mask="url(#mask16_704_16869)">
        <path d="M46.0567 34.9945H7.01758V36.092H46.0567V34.9945Z" fill="url(#paint16_linear_704_16869)" />
    </g>
    <mask id="mask17_704_16869" style="mask-type:luminance" maskUnits="userSpaceOnUse" x="0" y="0" width="202"
        height="48">
        <path d="M202 0H0V48H202V0Z" fill="white" />
    </mask>
    <g mask="url(#mask17_704_16869)">
        <path fill-rule="evenodd" clip-rule="evenodd"
            d="M188.534 36.5623C187.986 36.5623 187.437 36.523 186.927 36.4055C186.418 36.2879 185.908 36.1703 185.438 35.9351C184.967 35.7391 184.536 35.504 184.105 35.2296C183.713 34.9552 183.321 34.6416 182.968 34.2889C182.616 33.9361 182.302 33.5442 182.028 33.1522C181.753 32.721 181.518 32.2899 181.322 31.8195C181.126 31.3492 180.969 30.8396 180.891 30.3301C180.773 29.8205 180.734 29.2718 180.734 28.7231C180.734 28.1743 180.773 27.6256 180.891 27.116C180.969 26.6065 181.126 26.0969 181.322 25.6266C181.518 25.1562 181.753 24.6859 182.028 24.2939C182.302 23.8628 182.616 23.51 182.968 23.1572C183.321 22.8045 183.713 22.4909 184.105 22.2165C184.536 21.9422 184.967 21.707 185.438 21.511C185.908 21.315 186.418 21.1583 186.927 21.0407C187.437 20.9231 187.986 20.8839 188.534 20.8839C189.357 20.8839 190.141 21.0015 190.886 21.1974C191.631 21.3934 192.297 21.7462 192.924 22.1773C193.551 22.6085 194.061 23.118 194.531 23.706C194.962 24.2939 195.315 24.9211 195.59 25.6658L195.707 25.9794H194.335L194.296 25.8618C193.826 24.7251 193.042 23.8236 192.023 23.1964C191.513 22.8829 190.964 22.6477 190.376 22.4909C189.789 22.3341 189.201 22.2557 188.534 22.2557C188.064 22.2557 187.633 22.2949 187.202 22.3733C186.77 22.4517 186.378 22.5693 185.987 22.7653C185.595 22.9221 185.242 23.118 184.889 23.3532C184.536 23.5884 184.223 23.8628 183.948 24.1371C183.674 24.4115 183.4 24.7643 183.164 25.0778C182.929 25.4306 182.733 25.7834 182.576 26.2145C182.42 26.6065 182.302 27.0376 182.224 27.4688C182.145 27.8999 182.106 28.3311 182.106 28.8015C182.106 29.2718 182.145 29.703 182.224 30.1341C182.302 30.5653 182.42 30.9964 182.576 31.3884C182.733 31.7803 182.929 32.1723 183.164 32.5251C183.4 32.8778 183.635 33.1914 183.948 33.4658C184.223 33.7401 184.536 34.0145 184.889 34.2497C185.242 34.4849 185.595 34.6808 185.987 34.8376C186.378 34.9944 186.77 35.112 187.202 35.2296C187.633 35.308 188.064 35.3472 188.534 35.3472C189.201 35.3472 189.789 35.2688 190.376 35.112C190.964 34.9552 191.474 34.72 191.983 34.4065C193.003 33.7793 193.747 32.8778 194.296 31.7019L194.374 31.5844H195.746L195.629 31.8979C195.354 32.6426 194.962 33.309 194.492 33.8969C194.022 34.4849 193.473 34.9944 192.846 35.4256C192.219 35.8567 191.552 36.1703 190.808 36.4055C190.141 36.4447 189.357 36.5623 188.534 36.5623ZM154.512 36.5623C153.963 36.5623 153.415 36.523 152.905 36.4055C152.396 36.2879 151.886 36.1703 151.416 35.9351C150.945 35.7391 150.514 35.504 150.083 35.2296C149.652 34.9552 149.299 34.6416 148.946 34.2889C148.594 33.9361 148.28 33.5442 148.006 33.1522C147.731 32.721 147.496 32.2899 147.3 31.8195C147.104 31.3492 146.947 30.8396 146.869 30.3301C146.751 29.8205 146.712 29.2718 146.712 28.7231C146.712 28.1743 146.751 27.6256 146.869 27.116C146.947 26.6065 147.104 26.0969 147.3 25.6266C147.496 25.1562 147.731 24.6859 148.006 24.2939C148.28 23.8628 148.594 23.51 148.946 23.1572C149.299 22.8045 149.691 22.4909 150.083 22.2165C150.514 21.9422 150.945 21.707 151.416 21.511C151.886 21.315 152.396 21.1583 152.905 21.0407C153.415 20.9231 153.963 20.8839 154.512 20.8839C155.335 20.8839 156.119 21.0015 156.864 21.1974C157.609 21.3934 158.275 21.7462 158.902 22.1773C159.529 22.6085 160.039 23.118 160.509 23.706C160.94 24.2939 161.293 24.9211 161.567 25.6658L161.685 25.9794H160.313L160.274 25.8618C159.804 24.7251 159.02 23.8236 158.001 23.1964C157.491 22.8829 156.942 22.6477 156.354 22.4909C155.766 22.3341 155.179 22.2557 154.512 22.2557C154.042 22.2557 153.611 22.2949 153.18 22.3733C152.748 22.4517 152.356 22.5693 151.964 22.7653C151.572 22.9221 151.22 23.118 150.867 23.3532C150.514 23.5884 150.201 23.8628 149.926 24.1371C149.652 24.4115 149.378 24.7643 149.142 25.0778C148.907 25.4306 148.711 25.7834 148.554 26.2145C148.398 26.6065 148.28 27.0376 148.202 27.4688C148.123 27.8999 148.084 28.3311 148.084 28.8015C148.084 29.2718 148.123 29.703 148.202 30.1341C148.28 30.5653 148.398 30.9964 148.554 31.3884C148.711 31.7803 148.907 32.1723 149.142 32.5251C149.378 32.8778 149.613 33.1914 149.926 33.4658C150.201 33.7401 150.514 34.0145 150.867 34.2497C151.22 34.4849 151.572 34.6808 151.964 34.8376C152.356 34.9944 152.748 35.112 153.18 35.2296C153.611 35.308 154.042 35.3472 154.512 35.3472C155.179 35.3472 155.766 35.2688 156.354 35.112C156.942 34.9552 157.452 34.72 157.961 34.4065C158.981 33.7793 159.725 32.8778 160.274 31.7019L160.352 31.5844H161.724L161.607 31.8979C161.332 32.6426 160.94 33.309 160.47 33.8969C160 34.4849 159.451 34.9944 158.824 35.4256C158.197 35.8567 157.53 36.1703 156.786 36.4055C156.119 36.4447 155.335 36.5623 154.512 36.5623ZM136.717 35.2688C137.188 35.2688 137.619 35.2296 138.05 35.1512C138.481 35.0728 138.873 34.9552 139.265 34.7984C139.657 34.6417 140.01 34.4457 140.362 34.2105C140.715 33.9753 140.99 33.7401 141.303 33.4266C141.578 33.1522 141.852 32.7994 142.048 32.4859C142.283 32.1331 142.479 31.7803 142.636 31.3492C142.793 30.9572 142.91 30.5261 142.989 30.0949C143.067 29.6638 143.106 29.1934 143.106 28.7231C143.106 28.2527 143.067 27.7824 142.989 27.3512C142.91 26.9201 142.793 26.4889 142.636 26.0969C142.479 25.705 142.283 25.313 142.048 24.9603C141.813 24.6075 141.578 24.2939 141.303 24.0196C141.029 23.7452 140.715 23.4708 140.362 23.2356C140.01 23.0005 139.657 22.8045 139.265 22.6477C138.873 22.4909 138.481 22.3733 138.05 22.2949C137.619 22.2165 137.188 22.1773 136.717 22.1773C136.247 22.1773 135.816 22.2165 135.385 22.2949C134.953 22.3733 134.561 22.4909 134.17 22.6869C133.778 22.8437 133.425 23.0396 133.072 23.2748C132.719 23.51 132.406 23.7844 132.131 24.0587C131.857 24.3331 131.583 24.6859 131.347 24.9995C131.112 25.3522 130.916 25.705 130.759 26.1361C130.603 26.5281 130.485 26.9592 130.407 27.3904C130.328 27.8216 130.289 28.2527 130.289 28.7231C130.289 29.1934 130.328 29.6246 130.407 30.0557C130.485 30.4869 130.603 30.918 130.759 31.31C130.916 31.7019 131.112 32.0939 131.347 32.4467C131.583 32.7994 131.818 33.113 132.131 33.3874C132.406 33.6618 132.719 33.9361 133.072 34.1713C133.425 34.4065 133.778 34.6025 134.17 34.7592C134.561 34.916 134.953 35.0336 135.385 35.1512C135.816 35.2296 136.286 35.2688 136.717 35.2688ZM136.796 20.8839C137.344 20.8839 137.893 20.9231 138.403 21.0407C138.912 21.1583 139.422 21.2758 139.892 21.511C140.362 21.707 140.794 21.9422 141.186 22.2165C141.578 22.4909 141.969 22.8045 142.283 23.1572C142.636 23.51 142.91 23.902 143.185 24.2939C143.459 24.7251 143.655 25.1562 143.851 25.6266C144.047 26.0969 144.204 26.6065 144.282 27.116C144.36 27.6256 144.439 28.1743 144.439 28.7231C144.439 29.2718 144.4 29.8205 144.282 30.3301C144.204 30.8396 144.047 31.3492 143.851 31.8195C143.655 32.2899 143.42 32.721 143.185 33.1522C142.91 33.5834 142.636 33.9361 142.283 34.2889C141.93 34.6416 141.578 34.9552 141.186 35.2296C140.794 35.504 140.362 35.7391 139.892 35.9351C139.422 36.1311 138.912 36.2879 138.403 36.4055C137.893 36.523 137.344 36.5623 136.796 36.5623C136.012 36.5623 135.306 36.4839 134.601 36.2879C133.895 36.0919 133.268 35.8175 132.68 35.4256C132.092 35.0336 131.543 34.6024 131.073 34.0929C130.799 33.7793 130.563 33.4658 130.328 33.113V41.5009H128.996V21.1974H130.132L130.289 24.4507C130.524 24.0587 130.799 23.7452 131.073 23.3924C131.543 22.8829 132.053 22.4125 132.641 22.0598C133.229 21.6678 133.895 21.3934 134.601 21.1974C135.267 20.9623 136.012 20.8839 136.796 20.8839ZM100.069 20.8055C100.853 20.8055 101.558 20.9623 102.186 21.2366C102.813 21.5502 103.361 21.9422 103.832 22.4909C104.067 22.7653 104.263 23.0397 104.42 23.3532C104.577 23.6668 104.733 24.0196 104.851 24.3723C104.969 24.7251 105.047 25.117 105.125 25.509C105.204 25.901 105.204 26.3321 105.204 26.7633V36.2879H103.91L103.871 26.9593C103.871 25.4698 103.518 24.2939 102.774 23.3924C102.421 22.9613 101.99 22.6477 101.519 22.4125C101.049 22.1773 100.5 22.0989 99.9123 22.0989C99.2067 22.0989 98.5796 22.2165 97.9917 22.4909C97.4037 22.7653 96.9334 23.118 96.5022 23.5884C96.3062 23.8236 96.1103 24.0979 95.9535 24.3723C95.7967 24.6467 95.6399 24.9603 95.5223 25.313C95.4047 25.6266 95.3263 25.9794 95.2479 26.3713C95.2087 26.7241 95.1696 27.116 95.1696 27.508V36.2879H93.9153V26.9593C93.9153 25.4698 93.5625 24.2547 92.8178 23.3924C92.465 22.9613 92.0339 22.6477 91.5635 22.4125C91.0932 22.1773 90.5444 22.0989 89.9173 22.0989C89.2118 22.0989 88.5846 22.2165 87.9967 22.4909C87.4088 22.7653 86.9384 23.118 86.5073 23.5884C86.3113 23.8236 86.1153 24.0979 85.9585 24.3723C85.8017 24.6467 85.6449 24.9603 85.5274 25.313C85.4098 25.6266 85.3314 25.9794 85.253 26.3713C85.1746 26.7241 85.1746 27.116 85.1746 27.508V36.2879H83.8419V21.119H84.9786L85.0962 23.5492C85.253 23.314 85.4098 23.0789 85.6057 22.8437C85.9585 22.4125 86.3505 22.0598 86.8208 21.7462C87.7615 21.119 88.8198 20.8055 90.0349 20.8055C90.662 20.8055 91.2108 20.8839 91.7203 21.0799C92.2299 21.2758 92.7394 21.511 93.1706 21.903C93.8761 22.4909 94.3856 23.2356 94.7384 24.1763C94.8952 23.7844 95.1304 23.4316 95.3655 23.118C95.7183 22.6477 96.1494 22.2165 96.6198 21.8638C97.0901 21.511 97.6389 21.2366 98.2268 21.0799C98.8148 20.8839 99.4419 20.8055 100.069 20.8055ZM116.296 35.308C116.767 35.308 117.198 35.2688 117.629 35.1904C118.06 35.112 118.452 34.9944 118.844 34.8376C119.236 34.6808 119.589 34.4849 119.941 34.2497C120.294 34.0145 120.608 33.7401 120.882 33.4658C121.156 33.1914 121.431 32.8386 121.627 32.5251C121.862 32.1723 122.058 31.8195 122.215 31.3884C122.372 30.9964 122.489 30.5653 122.568 30.1341C122.646 29.703 122.685 29.2326 122.685 28.7623C122.685 28.2919 122.646 27.8216 122.568 27.3904C122.489 26.9592 122.372 26.5281 122.215 26.1361C122.058 25.7442 121.862 25.3522 121.627 24.9995C121.392 24.6467 121.156 24.3331 120.882 24.0587C120.608 23.7452 120.294 23.51 119.941 23.2748C119.589 23.0396 119.236 22.8437 118.844 22.6869C118.06 22.3733 117.198 22.2165 116.257 22.2165C115.787 22.2165 115.355 22.2557 114.924 22.3341C114.493 22.4125 114.101 22.5301 113.709 22.7261C113.317 22.8829 112.965 23.0788 112.612 23.314C112.259 23.5492 111.945 23.8236 111.671 24.0979C111.397 24.3723 111.122 24.7251 110.887 25.0386C110.652 25.3914 110.456 25.7442 110.299 26.1753C110.142 26.5673 110.025 26.9984 109.946 27.4296C109.868 27.8607 109.829 28.3311 109.829 28.8015C109.829 29.2718 109.868 29.7422 109.946 30.1733C110.025 30.6045 110.142 31.0356 110.299 31.4276C110.456 31.8195 110.652 32.2115 110.887 32.5643C111.122 32.917 111.357 33.2306 111.671 33.505C111.945 33.8185 112.259 34.0537 112.612 34.2889C112.965 34.5241 113.317 34.72 113.709 34.8768C114.101 35.0336 114.493 35.1512 114.924 35.2688C115.395 35.2688 115.865 35.308 116.296 35.308ZM124.096 21.3542V36.2879H122.881L122.803 33.0738C122.607 33.4266 122.332 33.7401 122.058 34.0537C121.588 34.5632 121.078 35.0336 120.49 35.4256C119.902 35.8175 119.236 36.0919 118.53 36.2879C117.825 36.4839 117.08 36.5623 116.296 36.5623C115.747 36.5623 115.199 36.523 114.689 36.4055C114.18 36.2879 113.67 36.1703 113.2 35.9351C112.259 35.5432 111.436 34.9944 110.73 34.2889C110.378 33.9361 110.064 33.5442 109.79 33.1522C109.515 32.721 109.28 32.2899 109.084 31.8195C108.888 31.3492 108.731 30.8396 108.653 30.3301C108.535 29.8205 108.496 29.2718 108.496 28.7231C108.496 28.1743 108.535 27.6256 108.653 27.116C108.771 26.6065 108.888 26.0969 109.084 25.6266C109.476 24.6467 110.025 23.8236 110.691 23.118C111.044 22.7653 111.397 22.4517 111.828 22.1773C112.22 21.903 112.69 21.6678 113.16 21.4718C113.631 21.2758 114.14 21.1191 114.65 21.0407C115.159 20.9231 115.708 20.8839 116.257 20.8839C117.825 20.8839 119.236 21.2758 120.451 22.0206C121.039 22.4125 121.588 22.8437 122.019 23.3532C122.293 23.6668 122.528 23.9804 122.763 24.3723L122.881 21.1582H124.057V21.3542H124.096ZM71.1816 35.308C71.652 35.308 72.0832 35.2688 72.5143 35.1904C72.9455 35.112 73.3374 34.9944 73.7294 34.8376C74.1213 34.6808 74.4741 34.4849 74.8269 34.2497C75.1796 34.0145 75.4932 33.7401 75.7676 33.4658C76.0419 33.1914 76.3163 32.8386 76.5123 32.5251C76.7475 32.1723 76.9434 31.8195 77.1002 31.3884C77.257 30.9964 77.3746 30.5653 77.453 30.1341C77.5314 29.703 77.5706 29.2326 77.5706 28.7623C77.5706 28.2919 77.5314 27.8216 77.453 27.3904C77.3746 26.9592 77.257 26.5281 77.1002 26.1361C76.9434 25.7442 76.7475 25.3522 76.5123 24.9995C76.2771 24.6467 76.0419 24.3331 75.7676 24.0587C75.4932 23.7452 75.1796 23.51 74.8269 23.2748C74.4741 23.0396 74.1213 22.8437 73.7294 22.6869C72.9455 22.3733 72.0832 22.2165 71.1424 22.2165C70.6721 22.2165 70.2409 22.2557 69.8098 22.3341C69.3786 22.4125 68.9867 22.5301 68.5947 22.7261C68.2028 22.8829 67.85 23.0788 67.4972 23.314C67.1445 23.5492 66.8309 23.8236 66.5565 24.0979C66.2822 24.3723 66.0078 24.7251 65.7726 25.0386C65.5374 25.3914 65.3415 25.7442 65.1847 26.1753C65.0279 26.5673 64.9103 26.9984 64.8319 27.4296C64.7535 27.8607 64.7143 28.3311 64.7143 28.8015C64.7143 29.2718 64.7535 29.7422 64.8319 30.1733C64.9103 30.6045 65.0279 31.0356 65.1847 31.4276C65.3415 31.8195 65.5374 32.2115 65.7726 32.5643C66.0078 32.917 66.243 33.2306 66.5565 33.505C66.8309 33.8185 67.1445 34.0537 67.4972 34.2889C67.85 34.5241 68.2028 34.72 68.5947 34.8768C68.9867 35.0336 69.3786 35.1512 69.8098 35.2688C70.2801 35.2688 70.7113 35.308 71.1816 35.308ZM78.9816 21.3542V36.2879H77.7666L77.6882 33.0738C77.4922 33.4266 77.2178 33.7401 76.9435 34.0537C76.4731 34.5632 75.9636 35.0336 75.3756 35.4256C74.7877 35.8175 74.1213 36.0919 73.4158 36.2879C72.7103 36.4839 71.9656 36.5623 71.1816 36.5623C70.6329 36.5623 70.0842 36.523 69.5746 36.4055C69.0651 36.2879 68.5555 36.1703 68.0852 35.9351C67.1445 35.5432 66.3213 34.9944 65.6158 34.2889C65.2631 33.9361 64.9495 33.5442 64.6751 33.1522C64.4007 32.721 64.1656 32.2899 63.9696 31.8195C63.7736 31.3492 63.6168 30.8396 63.5384 30.3301C63.4209 29.8205 63.3817 29.2718 63.3817 28.7231C63.3817 28.1743 63.4209 27.6256 63.5384 27.116C63.656 26.6065 63.7736 26.0969 63.9696 25.6266C64.3616 24.6467 64.9103 23.8236 65.5766 23.118C65.9294 22.7653 66.2822 22.4517 66.7133 22.1773C67.1053 21.903 67.5756 21.6678 68.046 21.4718C68.5163 21.2758 69.0259 21.1191 69.5354 21.0407C70.045 20.9231 70.5937 20.8839 71.1424 20.8839C72.7103 20.8839 74.1213 21.2758 75.3364 22.0206C75.9244 22.4125 76.4731 22.8437 76.9043 23.3532C77.1786 23.6668 77.4138 23.9804 77.649 24.3723L77.7666 21.1582H78.9424V21.3542H78.9816ZM176.423 21.119H177.481V36.2879H176.188V34.2105C176.031 34.4065 175.874 34.6025 175.717 34.7592C175.443 35.0336 175.129 35.308 174.776 35.5432C174.424 35.7783 174.071 35.9743 173.679 36.1311C173.287 36.2879 172.856 36.4055 172.425 36.4839C171.994 36.5622 171.523 36.6014 171.014 36.6014C170.034 36.6014 169.171 36.4447 168.388 36.1311C167.996 35.9743 167.643 35.7783 167.29 35.5432C166.937 35.308 166.624 35.0728 166.349 34.7592C166.075 34.4849 165.84 34.1321 165.605 33.7793C165.409 33.4266 165.213 33.0346 165.056 32.6427C164.899 32.2115 164.782 31.7803 164.703 31.3492C164.625 30.8788 164.586 30.4085 164.586 29.8989V21.1582H165.918V29.8205C165.918 30.6829 166.036 31.4276 166.271 32.0939C166.506 32.7602 166.82 33.3482 167.29 33.8185C167.721 34.2889 168.27 34.6808 168.897 34.916C169.524 35.1512 170.23 35.2688 171.014 35.2688C172.582 35.2688 173.836 34.7984 174.776 33.8185C175.247 33.3482 175.56 32.7602 175.796 32.0939C176.031 31.4276 176.148 30.6437 176.148 29.8205V21.1582H176.188H176.423V21.119ZM53.8962 26.7633H50.9957V36.2879H49.6631V16.8075H50.9957V25.509H53.8962L61.3435 16.8075H63.0681L55.1113 26.1361L63.7736 36.2879H62.049L53.8962 26.7633Z"
            fill="url(#paint17_linear_704_16869)" />
    </g>
    <defs>
        <linearGradient id="paint0_linear_704_16869" x1="29.5889" y1="9.75232" x2="38.0903" y2="20.726"
            gradientUnits="userSpaceOnUse">
            <stop stop-color="#A58A63" />
            <stop offset="0.523958" stop-color="#C6AF90" />
            <stop offset="1" stop-color="#A58A63" />
        </linearGradient>
        <linearGradient id="paint1_linear_704_16869" x1="12.1914" y1="9.75232" x2="20.6938" y2="20.722"
            gradientUnits="userSpaceOnUse">
            <stop stop-color="#A58A63" />
            <stop offset="0.523958" stop-color="#C6AF90" />
            <stop offset="1" stop-color="#A58A63" />
        </linearGradient>
        <linearGradient id="paint2_linear_704_16869" x1="33.3574" y1="14.5734" x2="37.4386" y2="23.1317"
            gradientUnits="userSpaceOnUse">
            <stop stop-color="#A58A63" />
            <stop offset="0.523958" stop-color="#C6AF90" />
            <stop offset="1" stop-color="#A58A63" />
        </linearGradient>
        <linearGradient id="paint3_linear_704_16869" x1="25.0479" y1="6.49902" x2="34.2492" y2="17.6253"
            gradientUnits="userSpaceOnUse">
            <stop stop-color="#A58A63" />
            <stop offset="0.523958" stop-color="#C6AF90" />
            <stop offset="1" stop-color="#A58A63" />
        </linearGradient>
        <linearGradient id="paint4_linear_704_16869" x1="16.6992" y1="6.49902" x2="25.9005" y2="17.6253"
            gradientUnits="userSpaceOnUse">
            <stop stop-color="#A58A63" />
            <stop offset="0.523958" stop-color="#C6AF90" />
            <stop offset="1" stop-color="#A58A63" />
        </linearGradient>
        <linearGradient id="paint5_linear_704_16869" x1="8.86035" y1="14.495" x2="12.7931" y2="22.9309"
            gradientUnits="userSpaceOnUse">
            <stop stop-color="#A58A63" />
            <stop offset="0.523958" stop-color="#C6AF90" />
            <stop offset="1" stop-color="#A58A63" />
        </linearGradient>
        <linearGradient id="paint6_linear_704_16869" x1="28.1445" y1="17.9442" x2="35.8193" y2="32.6836"
            gradientUnits="userSpaceOnUse">
            <stop stop-color="#A58A63" />
            <stop offset="0.523958" stop-color="#C6AF90" />
            <stop offset="1" stop-color="#A58A63" />
        </linearGradient>
        <linearGradient id="paint7_linear_704_16869" x1="6.90039" y1="17.9442" x2="14.5083" y2="32.778"
            gradientUnits="userSpaceOnUse">
            <stop stop-color="#A58A63" />
            <stop offset="0.523958" stop-color="#C6AF90" />
            <stop offset="1" stop-color="#A58A63" />
        </linearGradient>
        <linearGradient id="paint8_linear_704_16869" x1="13.6416" y1="37.7773" x2="13.7347" y2="39.9684"
            gradientUnits="userSpaceOnUse">
            <stop stop-color="#A58A63" />
            <stop offset="0.523958" stop-color="#C6AF90" />
            <stop offset="1" stop-color="#A58A63" />
        </linearGradient>
        <linearGradient id="paint9_linear_704_16869" x1="15.1709" y1="21.3934" x2="25.4276" y2="30.1406"
            gradientUnits="userSpaceOnUse">
            <stop stop-color="#A58A63" />
            <stop offset="0.523958" stop-color="#C6AF90" />
            <stop offset="1" stop-color="#A58A63" />
        </linearGradient>
        <linearGradient id="paint10_linear_704_16869" x1="22.8135" y1="24.0588" x2="26.7792" y2="25.1955"
            gradientUnits="userSpaceOnUse">
            <stop stop-color="#A58A63" />
            <stop offset="0.523958" stop-color="#C6AF90" />
            <stop offset="1" stop-color="#A58A63" />
        </linearGradient>
        <linearGradient id="paint11_linear_704_16869" x1="28.8496" y1="21.5503" x2="39.0616" y2="30.6189"
            gradientUnits="userSpaceOnUse">
            <stop stop-color="#A58A63" />
            <stop offset="0.523958" stop-color="#C6AF90" />
            <stop offset="1" stop-color="#A58A63" />
        </linearGradient>
        <linearGradient id="paint12_linear_704_16869" x1="28.2412" y1="23.6669" x2="31.4801" y2="24.4168"
            gradientUnits="userSpaceOnUse">
            <stop stop-color="#A58A63" />
            <stop offset="0.523958" stop-color="#C6AF90" />
            <stop offset="1" stop-color="#A58A63" />
        </linearGradient>
        <linearGradient id="paint13_linear_704_16869" x1="15.6807" y1="31.3884" x2="18.19" y2="39.6877"
            gradientUnits="userSpaceOnUse">
            <stop stop-color="#A58A63" />
            <stop offset="0.523958" stop-color="#C6AF90" />
            <stop offset="1" stop-color="#A58A63" />
        </linearGradient>
        <linearGradient id="paint14_linear_704_16869" x1="22.4219" y1="31.3242" x2="24.7952" y2="39.3472"
            gradientUnits="userSpaceOnUse">
            <stop stop-color="#A58A63" />
            <stop offset="0.523958" stop-color="#C6AF90" />
            <stop offset="1" stop-color="#A58A63" />
        </linearGradient>
        <linearGradient id="paint15_linear_704_16869" x1="24.5781" y1="14.8474" x2="29.7243" y2="19.0483"
            gradientUnits="userSpaceOnUse">
            <stop stop-color="#A58A63" />
            <stop offset="0.523958" stop-color="#C6AF90" />
            <stop offset="1" stop-color="#A58A63" />
        </linearGradient>
        <linearGradient id="paint16_linear_704_16869" x1="7.01758" y1="34.9945" x2="7.07923" y2="37.1877"
            gradientUnits="userSpaceOnUse">
            <stop stop-color="#A58A63" />
            <stop offset="0.523958" stop-color="#C6AF90" />
            <stop offset="1" stop-color="#A58A63" />
        </linearGradient>
        <linearGradient id="paint17_linear_704_16869" x1="49.6631" y1="16.8075" x2="57.7794" y2="64.8224"
            gradientUnits="userSpaceOnUse">
            <stop stop-color="#A58A63" />
            <stop offset="0.523958" stop-color="#C6AF90" />
            <stop offset="1" stop-color="#A58A63" />
        </linearGradient>
    </defs>
</svg>