<svg width="79" height="60" viewBox="0 0 79 60" fill="none" xmlns="http://www.w3.org/2000/svg">
<mask id="mask0_704_17021" style="mask-type:luminance" maskUnits="userSpaceOnUse" x="0" y="0" width="79" height="60">
<path d="M78.1818 0H0V60H78.1818V0Z" fill="white"/>
</mask>
<g mask="url(#mask0_704_17021)">
</g>
<mask id="mask1_704_17021" style="mask-type:luminance" maskUnits="userSpaceOnUse" x="0" y="0" width="79" height="60">
<path d="M78.1818 0H0V60H78.1818V0Z" fill="white"/>
</mask>
<g mask="url(#mask1_704_17021)">
</g>
<mask id="mask2_704_17021" style="mask-type:luminance" maskUnits="userSpaceOnUse" x="0" y="0" width="79" height="60">
<path d="M78.1818 0H0V60H78.1818V0Z" fill="white"/>
</mask>
<g mask="url(#mask2_704_17021)">
<mask id="mask3_704_17021" style="mask-type:luminance" maskUnits="userSpaceOnUse" x="-32" y="-19" width="142" height="101">
<path d="M109.344 -18.6104H-31.5693V81.1332H109.344V-18.6104Z" fill="white"/>
</mask>
<g mask="url(#mask3_704_17021)">
<path d="M44.8618 15.3962C46.0835 13.2206 48.2759 11.7144 52.1585 11.7144H60.6434V15.0615C60.6434 17.5048 60.3924 20.149 59.2042 22.2242C58.5515 23.379 57.631 24.3329 56.3424 24.9856H43.4561V22.559C43.4728 20.1156 43.6904 17.4714 44.8618 15.3962ZM52.1585 13.3879C48.9955 13.3879 47.255 14.5427 46.3178 16.2162C45.3304 17.9734 45.1463 20.3499 45.1463 22.559V24.2325H51.9577C55.0705 24.2325 56.811 23.0778 57.7649 21.4042C58.769 19.647 58.9699 17.2705 58.9699 15.0615V13.3879H52.1585Z" fill="url(#paint0_linear_704_17021)"/>
</g>
<mask id="mask4_704_17021" style="mask-type:luminance" maskUnits="userSpaceOnUse" x="-32" y="-19" width="142" height="101">
<path d="M109.344 -18.6104H-31.5693V81.1332H109.344V-18.6104Z" fill="white"/>
</mask>
<g mask="url(#mask4_704_17021)">
<path d="M19.9594 21.3875C20.8966 23.061 22.6371 24.2158 25.8001 24.2158H32.6115V22.5422C32.6115 20.3164 32.4106 17.9567 31.4065 16.1995C30.4526 14.5259 28.7121 13.3712 25.5993 13.3712H18.7879V15.0447C18.7879 17.2705 18.972 19.6302 19.9594 21.3875ZM21.3485 24.9856C20.0598 24.3329 19.1394 23.3623 18.4867 22.2242C17.3152 20.149 17.0977 17.5048 17.0977 15.0615V11.7144H25.5826C29.415 11.7144 31.6073 13.2206 32.829 15.3962C34.0172 17.4714 34.2683 20.1156 34.2683 22.559V24.9856H21.3485Z" fill="url(#paint1_linear_704_17021)"/>
</g>
<mask id="mask5_704_17021" style="mask-type:luminance" maskUnits="userSpaceOnUse" x="-32" y="-19" width="142" height="101">
<path d="M109.344 -18.6104H-31.5693V81.1332H109.344V-18.6104Z" fill="white"/>
</mask>
<g mask="url(#mask5_704_17021)">
<path d="M57.3968 20.6344C54.2338 20.6344 52.4933 21.7891 51.5561 23.4627C51.2884 23.9313 51.0875 24.4501 50.9202 24.9856H49.1797C49.3805 24.1656 49.6818 23.3623 50.0834 22.6426C51.3051 20.467 53.4974 18.9608 57.3801 18.9608H65.865V22.3079C65.865 23.8308 65.7646 25.4375 65.4131 26.9436C64.9947 26.5253 64.5094 26.1571 63.9237 25.8558C64.1245 24.7011 64.1914 23.4794 64.1914 22.3079V20.6344H57.3968Z" fill="url(#paint2_linear_704_17021)"/>
</g>
<mask id="mask6_704_17021" style="mask-type:luminance" maskUnits="userSpaceOnUse" x="-32" y="-19" width="142" height="101">
<path d="M109.344 -18.6104H-31.5693V81.1332H109.344V-18.6104Z" fill="white"/>
</mask>
<g mask="url(#mask6_704_17021)">
<path d="M37.9835 10.4759C39.2052 8.30026 41.3976 6.79407 45.2802 6.79407H53.7818V10.1412C53.7818 12.5845 53.5308 15.2288 52.3426 17.304C51.1042 19.4796 48.9118 20.9858 45.0961 20.9858H36.6112V17.6387C36.5945 15.1953 36.812 12.5678 37.9835 10.4759ZM45.2969 8.46762C42.1339 8.46762 40.3934 9.62237 39.4563 11.2959C38.4689 13.0531 38.2848 15.4296 38.2848 17.6387V19.3122H45.0961C48.2089 19.3122 49.9494 18.1575 50.9033 16.4839C51.9075 14.7267 52.1083 12.3503 52.1083 10.1412V8.46762H45.2969Z" fill="url(#paint3_linear_704_17021)"/>
</g>
<mask id="mask7_704_17021" style="mask-type:luminance" maskUnits="userSpaceOnUse" x="-32" y="-19" width="142" height="101">
<path d="M109.344 -18.6104H-31.5693V81.1332H109.344V-18.6104Z" fill="white"/>
</mask>
<g mask="url(#mask7_704_17021)">
<path d="M38.3013 11.2959C37.3641 9.62237 35.6236 8.46762 32.4606 8.46762H25.6493V10.1412C25.6493 12.367 25.8501 14.7267 26.8542 16.4839C27.8082 18.1575 29.5486 19.3122 32.6614 19.3122H39.4728V17.6387C39.4728 15.4296 39.2887 13.0531 38.3013 11.2959ZM32.4606 6.79407C36.3433 6.79407 38.5356 8.30026 39.7573 10.4759C40.9288 12.5511 41.1463 15.1953 41.1463 17.6387V20.9858H32.6614C28.829 20.9858 26.6367 19.4796 25.3982 17.304C24.21 15.2288 23.959 12.5845 23.959 10.1412V6.79407H32.4606Z" fill="url(#paint4_linear_704_17021)"/>
</g>
<mask id="mask8_704_17021" style="mask-type:luminance" maskUnits="userSpaceOnUse" x="-32" y="-19" width="142" height="101">
<path d="M109.344 -18.6104H-31.5693V81.1332H109.344V-18.6104Z" fill="white"/>
</mask>
<g mask="url(#mask8_704_17021)">
<path d="M20.5788 18.9441C24.4614 18.9441 26.6538 20.4503 27.8755 22.6259C28.2771 23.3455 28.5783 24.1488 28.7792 24.9689H27.0387C26.8713 24.4333 26.6705 23.9145 26.4027 23.4459C25.4655 21.7724 23.7251 20.6176 20.562 20.6176H13.7507V22.2912C13.7507 23.4292 13.8009 24.6007 14.0017 25.722C13.416 25.9897 12.9139 26.3244 12.4955 26.7261C12.1776 25.2868 12.0771 23.7639 12.0771 22.2912V18.9441H20.5788Z" fill="url(#paint5_linear_704_17021)"/>
</g>
<mask id="mask9_704_17021" style="mask-type:luminance" maskUnits="userSpaceOnUse" x="-32" y="-19" width="142" height="101">
<path d="M109.344 -18.6104H-31.5693V81.1332H109.344V-18.6104Z" fill="white"/>
</mask>
<g mask="url(#mask9_704_17021)">
<path d="M42.1005 24.1488H59.8903C63.7227 24.1488 65.9151 25.655 67.1368 27.8306C68.325 29.9058 68.576 32.55 68.576 34.9934V38.3405H50.8532H50.8364H46.4182C46.3011 37.805 46.2342 37.236 46.1839 36.667H50.8364H50.8532H66.9025V34.9934C66.9025 32.7676 66.7017 30.4079 65.6975 28.6507C64.7436 26.9771 63.0031 25.8224 59.8903 25.8224H41.3809C41.498 25.6215 41.6152 25.4374 41.6988 25.2868C41.8662 24.9354 42.0001 24.5505 42.1005 24.1488Z" fill="url(#paint6_linear_704_17021)"/>
</g>
<mask id="mask10_704_17021" style="mask-type:luminance" maskUnits="userSpaceOnUse" x="-32" y="-19" width="142" height="101">
<path d="M109.344 -18.6104H-31.5693V81.1332H109.344V-18.6104Z" fill="white"/>
</mask>
<g mask="url(#mask10_704_17021)">
<path d="M18.2355 24.1488H36.1258C36.1593 24.2994 36.1927 24.45 36.2429 24.5839C36.4103 25.086 36.5944 25.4709 36.8119 25.8224H17.8674C14.7044 25.8224 12.9639 26.9771 12.0267 28.6507C11.0393 30.4079 10.8552 32.7843 10.8552 34.9934V36.667H31.9084C31.808 37.236 31.6909 37.805 31.5403 38.3405H9.18164V34.9934C9.18164 32.55 9.3992 29.9058 10.5707 27.8306C11.7924 25.655 13.9847 24.1488 17.8674 24.1488H18.2355Z" fill="url(#paint7_linear_704_17021)"/>
</g>
<mask id="mask11_704_17021" style="mask-type:luminance" maskUnits="userSpaceOnUse" x="-32" y="-19" width="142" height="101">
<path d="M109.344 -18.6104H-31.5693V81.1332H109.344V-18.6104Z" fill="white"/>
</mask>
<g mask="url(#mask11_704_17021)">
<path d="M58.4508 54.1724H19.3232V55.8459H58.4508V54.1724Z" fill="url(#paint8_linear_704_17021)"/>
</g>
<mask id="mask12_704_17021" style="mask-type:luminance" maskUnits="userSpaceOnUse" x="-32" y="-19" width="142" height="101">
<path d="M109.344 -18.6104H-31.5693V81.1332H109.344V-18.6104Z" fill="white"/>
</mask>
<g mask="url(#mask12_704_17021)">
<path fill-rule="evenodd" clip-rule="evenodd" d="M23.3566 45.0682C22.9047 45.0682 22.1516 45.085 21.9173 44.9846L21.6328 44.8674L21.9173 44.767C22.0847 44.7001 22.6035 44.6499 23.0219 44.5996L23.5072 44.5327C23.7415 44.4992 23.9758 44.449 24.2268 44.3988C24.4611 44.3486 24.7121 44.2984 24.9464 44.2315C25.3983 44.1143 25.8669 43.9804 26.3355 43.8131C26.7539 43.6625 27.1555 43.4951 27.5237 43.311C31.0047 41.5873 31.4733 38.6083 32.0256 35.1943L32.2096 34.0228C32.4439 32.6672 32.7117 31.1276 33.6489 30.1234C33.7661 29.9896 34.0003 29.7887 34.2514 29.6381C34.4355 29.521 34.6363 29.4373 34.8204 29.4206L35.0714 29.3871C34.8873 29.6716 34.9208 29.6716 34.653 29.8389C33.3979 30.7092 33.3477 32.6338 33.2807 34.8261C33.2305 36.6503 33.1636 38.6585 32.4105 40.4158C31.7411 41.9722 30.6198 43.1102 29.1638 43.88C27.6409 44.6666 25.7497 45.0515 23.5574 45.0515L23.3566 45.0682Z" fill="url(#paint9_linear_704_17021)"/>
</g>
<mask id="mask13_704_17021" style="mask-type:luminance" maskUnits="userSpaceOnUse" x="-32" y="-19" width="142" height="101">
<path d="M109.344 -18.6104H-31.5693V81.1332H109.344V-18.6104Z" fill="white"/>
</mask>
<g mask="url(#mask13_704_17021)">
<path fill-rule="evenodd" clip-rule="evenodd" d="M34.452 43.629L33.2471 44.7L33.314 44.3653C33.3308 44.2984 33.5148 43.9971 33.6989 43.7126C33.7993 43.5453 33.8998 43.3947 33.95 43.311C34.0504 43.1436 34.1341 42.9595 34.2177 42.7922C34.3014 42.6081 34.3851 42.424 34.452 42.2399C34.8704 41.1186 35.1382 39.7965 35.2553 38.441C35.3725 37.0687 35.3055 35.6796 35.088 34.4579L35.0378 34.2738C35.0043 34.1232 34.9541 33.9558 34.9541 33.7885V33.3868L35.1549 33.7216C35.6068 34.4412 36.0419 35.5959 36.2762 36.8344C36.4938 37.8887 36.5607 38.9932 36.3933 39.8802C36.2595 40.5831 36.0084 41.2525 35.6905 41.855C35.3725 42.5244 34.9374 43.1102 34.452 43.629Z" fill="url(#paint10_linear_704_17021)"/>
</g>
<mask id="mask14_704_17021" style="mask-type:luminance" maskUnits="userSpaceOnUse" x="-32" y="-19" width="142" height="101">
<path d="M109.344 -18.6104H-31.5693V81.1332H109.344V-18.6104Z" fill="white"/>
</mask>
<g mask="url(#mask14_704_17021)">
<path fill-rule="evenodd" clip-rule="evenodd" d="M55.0707 44.7336C55.4389 44.8172 55.6899 44.8674 55.7903 44.9177L56.192 45.1017L55.7568 45.1352C54.987 45.2022 53.8155 45.1185 52.6775 44.9344C51.506 44.7503 50.3513 44.4658 49.6149 44.1478C44.611 42.0391 44.7951 38.2737 44.9457 35.1107C45.0126 33.6881 45.0796 32.366 44.6445 31.4121C44.4771 31.0439 44.2093 30.6757 43.9081 30.3745C43.6069 30.09 43.2721 29.8557 42.9542 29.7553L42.335 29.5377L42.9876 29.521C43.1383 29.521 43.3558 29.5879 43.5734 29.6716C43.8579 29.7888 44.1424 29.9561 44.293 30.0565C45.8996 31.1778 46.0502 33.3367 46.2176 35.5458C46.2845 36.5499 46.3682 37.5708 46.569 38.4912C46.8201 39.6125 47.2719 40.5497 47.9246 41.3195C48.5773 42.0894 49.4141 42.7253 50.4517 43.2441C52.2758 44.1478 54.0833 44.5327 55.0707 44.7336Z" fill="url(#paint11_linear_704_17021)"/>
</g>
<mask id="mask15_704_17021" style="mask-type:luminance" maskUnits="userSpaceOnUse" x="-32" y="-19" width="142" height="101">
<path d="M109.344 -18.6104H-31.5693V81.1332H109.344V-18.6104Z" fill="white"/>
</mask>
<g mask="url(#mask15_704_17021)">
<path fill-rule="evenodd" clip-rule="evenodd" d="M43.6734 42.5913C43.8408 43.1436 43.9747 43.6122 43.9914 43.7126L44.0249 43.9637L43.8073 43.813C43.6567 43.7126 43.5395 43.5285 43.4391 43.3612L43.3722 43.2608C42.5521 41.9387 41.9497 40.8676 41.6484 39.7296C41.3472 38.5748 41.3639 37.3531 41.7488 35.7131C41.8493 35.3114 41.9664 34.9265 42.1003 34.5416C42.2342 34.1734 42.4015 33.8052 42.5521 33.437V33.4203C42.5689 33.3868 42.6024 33.3031 42.6191 33.2864C42.686 33.186 42.8701 33.0019 42.9538 32.9015V33.2195C42.9538 33.504 42.9036 33.8387 42.8367 34.1567C42.7864 34.4077 42.753 34.6755 42.7362 34.893C42.6693 35.9139 42.6358 36.7674 42.6693 37.6376C42.7028 38.4911 42.8199 39.3614 43.0542 40.399C43.1714 40.9011 43.4391 41.8382 43.6734 42.5913Z" fill="url(#paint12_linear_704_17021)"/>
</g>
<mask id="mask16_704_17021" style="mask-type:luminance" maskUnits="userSpaceOnUse" x="-32" y="-19" width="142" height="101">
<path d="M109.344 -18.6104H-31.5693V81.1332H109.344V-18.6104Z" fill="white"/>
</mask>
<g mask="url(#mask16_704_17021)">
<path fill-rule="evenodd" clip-rule="evenodd" d="M37.5982 49.5867C38.9705 49.5198 40.0583 49.5533 41.4306 49.319C41.1963 49.3859 45.3802 49.9382 45.1626 49.9717C44.6104 50.0721 38.8199 50.0386 38.2509 50.1223C37.5982 50.2227 36.9455 50.3231 36.2761 50.457C34.5858 50.775 32.2596 51.1934 30.0338 51.3105C27.7912 51.4276 25.6156 51.2268 24.26 50.3231C23.4902 49.8043 22.8542 48.9675 22.5865 48.0805C22.486 47.7291 22.4358 47.3609 22.4693 46.9927C22.5028 46.6413 22.6199 46.2899 22.8375 45.9719C23.1722 45.4698 23.7747 45.0347 24.6784 44.7669C25.2976 44.5828 26.034 44.4991 26.7871 44.4824C27.5234 44.4657 28.2765 44.4991 28.9459 44.5661C29.448 44.6163 30.017 44.6832 30.6028 44.7669C31.222 44.8673 31.8579 44.9845 32.3935 45.1016C32.5441 45.1351 32.7449 45.1686 32.8788 45.2355C32.9625 45.2857 32.9959 45.3359 32.9959 45.3694L33.1298 45.4865H32.8286C32.5106 45.4865 32.1592 45.4698 31.8245 45.4363C31.5567 45.4196 31.2889 45.3861 31.0211 45.3861H30.9207C29.0966 45.3694 25.7997 45.3192 24.4441 46.2899C24.2265 46.4405 24.0927 46.5744 24.009 46.7584C23.942 46.9258 23.942 47.1434 24.0257 47.4613C24.1596 47.9467 24.3939 48.2981 24.7119 48.5993C25.0298 48.8839 25.4315 49.1014 25.8666 49.2688C27.9753 50.0888 31.4897 49.888 34.3682 49.7374C35.0879 49.7039 35.774 49.6537 36.3765 49.637C36.7949 49.637 37.1965 49.6035 37.5982 49.5867Z" fill="url(#paint13_linear_704_17021)"/>
</g>
<mask id="mask17_704_17021" style="mask-type:luminance" maskUnits="userSpaceOnUse" x="-32" y="-19" width="142" height="101">
<path d="M109.344 -18.6104H-31.5693V81.1332H109.344V-18.6104Z" fill="white"/>
</mask>
<g mask="url(#mask17_704_17021)">
<path fill-rule="evenodd" clip-rule="evenodd" d="M43.3554 45.587C43.1044 45.6539 42.9203 45.6874 42.7529 45.7041L42.1337 45.7376L42.7027 45.4698C43.9076 44.9176 45.6314 44.5494 47.4054 44.382C49.1459 44.2314 50.97 44.2816 52.3925 44.6163C52.8277 44.7167 53.1791 44.8172 53.4971 44.951C53.8151 45.1017 54.0996 45.269 54.3339 45.52C54.6016 45.7878 54.7857 46.1058 54.8861 46.4238C55.0535 46.9258 55.0368 47.4614 54.8694 47.9802C54.702 48.499 54.3841 49.001 53.9322 49.4529C53.4636 49.9215 52.8277 50.3064 52.0913 50.5574C49.3969 51.4444 44.9955 50.3901 41.3471 49.5198C40.1087 49.2186 38.9707 48.9508 38 48.7835C37.7155 48.7333 37.431 48.6831 37.1632 48.6328C36.6612 48.5324 36.1759 48.4488 35.6738 48.3651C34.8035 48.2479 34.2178 48.2647 33.4312 48.2814L32.6279 48.2981C32.7953 48.1977 33.0463 48.0136 33.2471 47.9467C34.8705 47.4781 38.9372 48.0304 41.0291 48.3149L41.732 48.4153C42.2006 48.4822 42.7027 48.5492 43.2382 48.6161C45.5645 48.9508 48.4597 49.3525 50.3508 49.1851C50.97 49.1349 51.7231 48.9676 52.3591 48.6496C52.8277 48.4153 53.2126 48.0806 53.3967 47.6455C53.6979 46.9258 53.4469 46.474 52.995 46.1727C52.5097 45.8547 51.7901 45.6874 51.2211 45.5702C50.5182 45.4196 49.8153 45.3192 49.1124 45.2523C48.3928 45.1853 47.6731 45.1519 46.9033 45.1519C45.0791 45.1853 43.9913 45.4364 43.3554 45.587Z" fill="url(#paint14_linear_704_17021)"/>
</g>
<mask id="mask18_704_17021" style="mask-type:luminance" maskUnits="userSpaceOnUse" x="-32" y="-19" width="142" height="101">
<path d="M109.344 -18.6104H-31.5693V81.1332H109.344V-18.6104Z" fill="white"/>
</mask>
<g mask="url(#mask18_704_17021)">
<path fill-rule="evenodd" clip-rule="evenodd" d="M37.2808 26.1237C37.3311 26.3077 37.3813 26.4584 37.3813 26.5086L37.4649 27.0776L37.1637 26.5922C36.7286 25.9396 36.4106 25.4542 36.1428 24.6342C36.009 24.2325 35.9085 23.7472 35.8918 23.2451C35.8751 22.81 35.9085 22.3582 36.009 21.9565C36.2265 21.1867 36.7118 20.4169 37.4147 19.9315C38.0005 19.5131 38.7368 19.2956 39.5736 19.4462C40.3434 19.5801 40.9794 20.0152 41.448 20.6009C41.9333 21.2202 42.2513 22.0067 42.3015 22.8435C42.335 23.3121 42.3015 23.764 42.2011 24.1823C42.1007 24.6007 41.9668 24.9856 41.7827 25.3538C41.6488 25.6383 41.3978 26.0232 41.1467 26.358C40.9292 26.6425 40.6949 26.9102 40.4941 27.0441L40.1594 27.2784L40.31 26.9102C40.3602 26.7763 40.4439 26.6592 40.5108 26.5253C40.5777 26.4082 40.6447 26.291 40.6949 26.1906C40.8957 25.7722 41.0463 25.3371 41.1467 24.8852C41.2472 24.4334 41.2639 23.9648 41.2137 23.4794C41.1467 22.8937 40.9125 22.3247 40.5777 21.8896C40.2598 21.4879 39.8414 21.1867 39.356 21.0695C38.8372 20.9524 38.3519 21.103 37.967 21.3875C37.4649 21.7557 37.1135 22.3247 36.9629 22.8268C36.8792 23.1447 36.829 23.4627 36.8123 23.7807C36.7955 24.1154 36.829 24.4501 36.8959 24.8016C36.9963 25.1865 37.1637 25.7555 37.2808 26.1237Z" fill="url(#paint15_linear_704_17021)"/>
</g>
<mask id="mask19_704_17021" style="mask-type:luminance" maskUnits="userSpaceOnUse" x="0" y="-1" width="78" height="63">
<path d="M77.2728 -0.00012207H0.90918V61.8181H77.2728V-0.00012207Z" fill="white"/>
</mask>
<g mask="url(#mask19_704_17021)">
<path d="M68.4755 49.9717H9.29883V51.6452H68.4755V49.9717Z" fill="url(#paint16_linear_704_17021)"/>
</g>
</g>
<defs>
<linearGradient id="paint0_linear_704_17021" x1="43.4561" y1="11.7144" x2="56.2957" y2="28.3427" gradientUnits="userSpaceOnUse">
<stop stop-color="#A58A63"/>
<stop offset="0.523958" stop-color="#C6AF90"/>
<stop offset="1" stop-color="#A58A63"/>
</linearGradient>
<linearGradient id="paint1_linear_704_17021" x1="17.0977" y1="11.7144" x2="29.9404" y2="28.3306" gradientUnits="userSpaceOnUse">
<stop stop-color="#A58A63"/>
<stop offset="0.523958" stop-color="#C6AF90"/>
<stop offset="1" stop-color="#A58A63"/>
</linearGradient>
<linearGradient id="paint2_linear_704_17021" x1="49.1797" y1="18.9608" x2="55.3954" y2="31.9526" gradientUnits="userSpaceOnUse">
<stop stop-color="#A58A63"/>
<stop offset="0.523958" stop-color="#C6AF90"/>
<stop offset="1" stop-color="#A58A63"/>
</linearGradient>
<linearGradient id="paint3_linear_704_17021" x1="36.6104" y1="6.79407" x2="50.5481" y2="23.6583" gradientUnits="userSpaceOnUse">
<stop stop-color="#A58A63"/>
<stop offset="0.523958" stop-color="#C6AF90"/>
<stop offset="1" stop-color="#A58A63"/>
</linearGradient>
<linearGradient id="paint4_linear_704_17021" x1="23.959" y1="6.79407" x2="37.8943" y2="23.671" gradientUnits="userSpaceOnUse">
<stop stop-color="#A58A63"/>
<stop offset="0.523958" stop-color="#C6AF90"/>
<stop offset="1" stop-color="#A58A63"/>
</linearGradient>
<linearGradient id="paint5_linear_704_17021" x1="12.0771" y1="18.9441" x2="18.0354" y2="31.732" gradientUnits="userSpaceOnUse">
<stop stop-color="#A58A63"/>
<stop offset="0.523958" stop-color="#C6AF90"/>
<stop offset="1" stop-color="#A58A63"/>
</linearGradient>
<linearGradient id="paint6_linear_704_17021" x1="41.3809" y1="24.1488" x2="53.0224" y2="46.4571" gradientUnits="userSpaceOnUse">
<stop stop-color="#A58A63"/>
<stop offset="0.523958" stop-color="#C6AF90"/>
<stop offset="1" stop-color="#A58A63"/>
</linearGradient>
<linearGradient id="paint7_linear_704_17021" x1="9.18164" y1="24.1488" x2="20.717" y2="46.6073" gradientUnits="userSpaceOnUse">
<stop stop-color="#A58A63"/>
<stop offset="0.523958" stop-color="#C6AF90"/>
<stop offset="1" stop-color="#A58A63"/>
</linearGradient>
<linearGradient id="paint8_linear_704_17021" x1="19.3232" y1="54.1724" x2="19.4661" y2="57.5134" gradientUnits="userSpaceOnUse">
<stop stop-color="#A58A63"/>
<stop offset="0.523958" stop-color="#C6AF90"/>
<stop offset="1" stop-color="#A58A63"/>
</linearGradient>
<linearGradient id="paint9_linear_704_17021" x1="21.6328" y1="29.3871" x2="37.1299" y2="42.6671" gradientUnits="userSpaceOnUse">
<stop stop-color="#A58A63"/>
<stop offset="0.523958" stop-color="#C6AF90"/>
<stop offset="1" stop-color="#A58A63"/>
</linearGradient>
<linearGradient id="paint10_linear_704_17021" x1="33.2471" y1="33.3868" x2="39.2361" y2="35.1021" gradientUnits="userSpaceOnUse">
<stop stop-color="#A58A63"/>
<stop offset="0.523958" stop-color="#C6AF90"/>
<stop offset="1" stop-color="#A58A63"/>
</linearGradient>
<linearGradient id="paint11_linear_704_17021" x1="42.335" y1="29.521" x2="57.8586" y2="43.2774" gradientUnits="userSpaceOnUse">
<stop stop-color="#A58A63"/>
<stop offset="0.523958" stop-color="#C6AF90"/>
<stop offset="1" stop-color="#A58A63"/>
</linearGradient>
<linearGradient id="paint12_linear_704_17021" x1="41.4395" y1="32.9015" x2="46.3425" y2="34.0474" gradientUnits="userSpaceOnUse">
<stop stop-color="#A58A63"/>
<stop offset="0.523958" stop-color="#C6AF90"/>
<stop offset="1" stop-color="#A58A63"/>
</linearGradient>
<linearGradient id="paint13_linear_704_17021" x1="22.459" y1="44.4781" x2="26.2593" y2="57.0551" gradientUnits="userSpaceOnUse">
<stop stop-color="#A58A63"/>
<stop offset="0.523958" stop-color="#C6AF90"/>
<stop offset="1" stop-color="#A58A63"/>
</linearGradient>
<linearGradient id="paint14_linear_704_17021" x1="32.6279" y1="44.3013" x2="36.2017" y2="56.4322" gradientUnits="userSpaceOnUse">
<stop stop-color="#A58A63"/>
<stop offset="0.523958" stop-color="#C6AF90"/>
<stop offset="1" stop-color="#A58A63"/>
</linearGradient>
<linearGradient id="paint15_linear_704_17021" x1="35.8877" y1="19.3984" x2="43.6066" y2="25.6935" gradientUnits="userSpaceOnUse">
<stop stop-color="#A58A63"/>
<stop offset="0.523958" stop-color="#C6AF90"/>
<stop offset="1" stop-color="#A58A63"/>
</linearGradient>
<linearGradient id="paint16_linear_704_17021" x1="9.29883" y1="49.9717" x2="9.39341" y2="53.3161" gradientUnits="userSpaceOnUse">
<stop stop-color="#A58A63"/>
<stop offset="0.523958" stop-color="#C6AF90"/>
<stop offset="1" stop-color="#A58A63"/>
</linearGradient>
</defs>
</svg>
